<svg width="183" height="21" viewBox="0 0 183 21" fill="none" xmlns="http://www.w3.org/2000/svg">
<path d="M39.914 14.104C39.082 14.104 38.3583 13.9177 37.743 13.545C37.1277 13.1637 36.6553 12.622 36.326 11.92C35.9967 11.2093 35.832 10.3773 35.832 9.424C35.832 8.462 35.9967 7.63 36.326 6.928C36.6553 6.21733 37.1233 5.67567 37.73 5.303C38.3453 4.92167 39.0733 4.731 39.914 4.731C40.7547 4.731 41.4827 4.92167 42.098 5.303C42.7133 5.67567 43.1857 6.213 43.515 6.915C43.8443 7.617 44.009 8.449 44.009 9.411C44.009 10.373 43.8443 11.2093 43.515 11.92C43.1857 12.622 42.7133 13.1637 42.098 13.545C41.4827 13.9177 40.7547 14.104 39.914 14.104ZM39.914 13.389C40.9453 13.389 41.747 13.0423 42.319 12.349C42.891 11.6557 43.177 10.6763 43.177 9.411C43.177 8.14567 42.891 7.17067 42.319 6.486C41.7557 5.79267 40.954 5.446 39.914 5.446C38.8827 5.446 38.081 5.79267 37.509 6.486C36.9457 7.17933 36.664 8.15433 36.664 9.411C36.664 10.6677 36.9457 11.647 37.509 12.349C38.081 13.0423 38.8827 13.389 39.914 13.389ZM48.4399 14.091C47.8419 14.091 47.3175 13.9567 46.8669 13.688C46.4249 13.4193 46.0825 13.038 45.8399 12.544C45.5972 12.05 45.4759 11.4823 45.4759 10.841C45.4759 10.191 45.5972 9.61467 45.8399 9.112C46.0912 8.60933 46.4422 8.22367 46.8929 7.955C47.3435 7.67767 47.8722 7.539 48.4789 7.539C48.9035 7.539 49.3109 7.61267 49.7009 7.76C50.0995 7.90733 50.4202 8.111 50.6629 8.371L50.3639 8.995C50.0432 8.72633 49.7312 8.53133 49.4279 8.41C49.1332 8.28867 48.8255 8.228 48.5049 8.228C47.8289 8.228 47.2915 8.462 46.8929 8.93C46.5029 9.38933 46.3079 10.0263 46.3079 10.841C46.3079 11.647 46.5029 12.2753 46.8929 12.726C47.2829 13.168 47.8159 13.389 48.4919 13.389C48.8125 13.389 49.1202 13.3283 49.4149 13.207C49.7182 13.0857 50.0345 12.895 50.3639 12.635L50.6629 13.246C50.4029 13.506 50.0735 13.714 49.6749 13.87C49.2762 14.0173 48.8645 14.091 48.4399 14.091ZM54.6098 13.415C54.8005 13.415 54.9868 13.402 55.1688 13.376L55.1298 14.039C54.9391 14.065 54.7355 14.078 54.5188 14.078C53.8081 14.078 53.2708 13.8873 52.9068 13.506C52.5428 13.116 52.3608 12.5873 52.3608 11.92V8.332H51.1128V7.695H52.3608V5.745H53.1538V7.695H54.9998V8.332H53.1538V11.816C53.1538 12.3447 53.2751 12.7433 53.5178 13.012C53.7691 13.2807 54.1331 13.415 54.6098 13.415ZM56.0333 10.88V10.204H59.5693V10.88H56.0333ZM68.161 4.835H68.915V14H68.291L62.48 6.187V14H61.726V4.835H62.363L68.161 12.635V4.835ZM73.6515 14.091C73.0709 14.091 72.5595 13.9567 72.1175 13.688C71.6842 13.4193 71.3462 13.038 71.1035 12.544C70.8609 12.05 70.7395 11.4737 70.7395 10.815C70.7395 10.1563 70.8609 9.58 71.1035 9.086C71.3462 8.592 71.6842 8.21067 72.1175 7.942C72.5595 7.67333 73.0709 7.539 73.6515 7.539C74.2235 7.539 74.7305 7.67333 75.1725 7.942C75.6145 8.21067 75.9525 8.592 76.1865 9.086C76.4292 9.58 76.5505 10.1563 76.5505 10.815C76.5505 11.4737 76.4292 12.05 76.1865 12.544C75.9525 13.038 75.6145 13.4193 75.1725 13.688C74.7305 13.9567 74.2235 14.091 73.6515 14.091ZM73.6385 13.389C74.3059 13.389 74.8215 13.168 75.1855 12.726C75.5495 12.284 75.7315 11.647 75.7315 10.815C75.7315 10.0003 75.5452 9.36767 75.1725 8.917C74.8085 8.45767 74.3015 8.228 73.6515 8.228C72.9929 8.228 72.4815 8.45767 72.1175 8.917C71.7535 9.36767 71.5715 10.0003 71.5715 10.815C71.5715 11.647 71.7492 12.284 72.1045 12.726C72.4599 13.168 72.9712 13.389 73.6385 13.389ZM82.726 7.695H83.532L80.828 14H80.022L77.331 7.695H78.176L80.451 13.194L82.726 7.695Z" fill="white"/>
<g clip-path="url(#clip0_1_16)">
<path d="M129 2.59998C123.927 2.59998 119.8 6.72716 119.8 11.8C119.8 16.8728 123.927 21 129 21C134.073 21 138.2 16.8728 138.2 11.8C138.2 6.72716 134.073 2.59998 129 2.59998ZM129 20.2C124.368 20.2 120.6 16.432 120.6 11.8C120.6 7.16798 124.368 3.39998 129 3.39998C133.632 3.39998 137.4 7.16798 137.4 11.8C137.4 16.432 133.632 20.2 129 20.2Z" fill="white"/>
<path d="M129 10.6C128.338 10.6 127.8 11.1384 127.8 11.8C127.8 12.4616 128.338 13 129 13C129.662 13 130.2 12.4616 130.2 11.8C130.2 11.1384 129.662 10.6 129 10.6ZM129 12.2C128.779 12.2 128.6 12.02 128.6 11.8C128.6 11.58 128.779 11.4 129 11.4C129.221 11.4 129.4 11.58 129.4 11.8C129.4 12.02 129.221 12.2 129 12.2Z" fill="white"/>
<path d="M129 1C128.779 1 128.6 1.17922 128.6 1.4V3C128.6 3.22078 128.779 3.4 129 3.4C129.221 3.4 129.4 3.22078 129.4 3V1.4C129.4 1.17922 129.221 1 129 1Z" fill="white"/>
<path d="M129 12.2C128.779 12.2 128.6 12.3792 128.6 12.6V14.2C128.6 14.4207 128.779 14.5999 129 14.5999C129.221 14.5999 129.4 14.4207 129.4 14.2V12.6C129.4 12.3791 129.221 12.2 129 12.2Z" fill="white"/>
<path d="M129 5C128.779 5 128.6 5.17918 128.6 5.4V11C128.6 11.2208 128.779 11.4 129 11.4C129.221 11.4 129.4 11.2208 129.4 11V5.4C129.4 5.17918 129.221 5 129 5Z" fill="white"/>
<path d="M136.883 4.71683L135.683 3.51683C135.569 3.40242 135.396 3.36883 135.247 3.43043C135.098 3.49203 135 3.63844 135 3.80004V5.00004C135 5.22082 135.179 5.40004 135.4 5.40004H136.6C136.762 5.40004 136.907 5.30242 136.97 5.15285C137.032 5.00324 136.998 4.83125 136.883 4.71683Z" fill="white"/>
</g>
<path d="M160.955 14.298V15H155.17V14.402L158.433 10.762C158.892 10.2333 159.226 9.76533 159.434 9.358C159.642 8.95067 159.746 8.54333 159.746 8.136C159.746 7.59 159.586 7.16967 159.265 6.875C158.953 6.58033 158.507 6.433 157.926 6.433C157.007 6.433 156.128 6.80133 155.287 7.538L154.949 6.901C155.313 6.54567 155.764 6.264 156.301 6.056C156.847 5.83933 157.389 5.731 157.926 5.731C158.741 5.731 159.382 5.94333 159.85 6.368C160.318 6.784 160.552 7.36033 160.552 8.097C160.552 8.62567 160.431 9.137 160.188 9.631C159.945 10.125 159.547 10.6797 158.992 11.295L156.249 14.298H160.955ZM169.061 8.539C170.578 8.539 171.336 9.35367 171.336 10.983V15H170.543V11.035C170.543 10.411 170.418 9.956 170.166 9.67C169.915 9.384 169.516 9.241 168.97 9.241C168.346 9.241 167.844 9.43167 167.462 9.813C167.09 10.1943 166.903 10.7057 166.903 11.347V15H166.11V5.835H166.903V9.748C167.103 9.358 167.389 9.059 167.761 8.851C168.143 8.643 168.576 8.539 169.061 8.539ZM176.699 9.228L176.14 9.28C175.456 9.34933 174.957 9.57033 174.645 9.943C174.342 10.3157 174.19 10.7707 174.19 11.308V15H173.397V8.695H174.177V9.8C174.368 9.41 174.637 9.11967 174.983 8.929C175.339 8.72967 175.776 8.60833 176.296 8.565L176.634 8.539L176.699 9.228ZM179.793 15.091C178.797 15.091 177.982 14.8093 177.349 14.246L177.648 13.635C177.986 13.9123 178.324 14.1117 178.662 14.233C179 14.3457 179.39 14.402 179.832 14.402C180.344 14.402 180.734 14.311 181.002 14.129C181.28 13.947 181.418 13.6913 181.418 13.362C181.418 13.0847 181.327 12.8637 181.145 12.699C180.963 12.5257 180.673 12.3957 180.274 12.309L179.208 12.062C178.697 11.9407 178.294 11.7327 177.999 11.438C177.713 11.1347 177.57 10.7793 177.57 10.372C177.57 9.826 177.783 9.384 178.207 9.046C178.632 8.708 179.2 8.539 179.91 8.539C180.352 8.539 180.764 8.61267 181.145 8.76C181.535 8.89867 181.856 9.10233 182.107 9.371L181.808 9.982C181.514 9.722 181.21 9.53133 180.898 9.41C180.595 9.28867 180.266 9.228 179.91 9.228C179.434 9.228 179.061 9.32333 178.792 9.514C178.524 9.70467 178.389 9.969 178.389 10.307C178.389 10.5843 178.472 10.8097 178.636 10.983C178.81 11.1563 179.074 11.2863 179.429 11.373L180.508 11.633C181.652 11.893 182.224 12.4563 182.224 13.323C182.224 13.8603 182.003 14.2893 181.561 14.61C181.128 14.9307 180.539 15.091 179.793 15.091Z" fill="white"/>
<g clip-path="url(#clip1_1_16)">
<path d="M18.1818 1.81816H16.3637V0.454531C16.3636 0.203516 16.1601 0 15.9091 0C15.658 0 15.4546 0.203516 15.4546 0.454531V1.81816H4.54547V0.454531C4.54547 0.203516 4.34195 0 4.0909 0C3.83984 0 3.63637 0.203516 3.63637 0.454531V1.81816H1.81816C0.814023 1.81816 0 2.63223 0 3.63637V18.1818C0 19.186 0.814023 20 1.81816 20H18.1818C19.186 20 20 19.186 20 18.1818V3.63637C20 2.63223 19.186 1.81816 18.1818 1.81816ZM19.0909 18.1818C19.0909 18.6839 18.6839 19.0909 18.1818 19.0909H1.81816C1.31609 19.0909 0.909063 18.6839 0.909063 18.1818V7.27273H19.0909V18.1818ZM19.0909 6.36363H0.909102V3.63637C0.909102 3.1343 1.31613 2.72727 1.8182 2.72727H3.63637V4.0909C3.63637 4.34195 3.83988 4.54543 4.0909 4.54543C4.34195 4.54543 4.54543 4.34191 4.54543 4.0909V2.72727H15.4545V4.0909C15.4545 4.34195 15.658 4.54543 15.9091 4.54543C16.1601 4.54543 16.3636 4.34191 16.3636 4.0909V2.72727H18.1818C18.6838 2.72727 19.0909 3.1343 19.0909 3.63637V6.36363H19.0909Z" fill="white"/>
<path d="M13.1819 16.8182H14.0319V9.50452H13.4001C13.3658 9.74831 13.2773 9.98131 13.141 10.1864C13.0226 10.3592 12.8674 10.5036 12.6864 10.6091C12.4957 10.7142 12.288 10.7849 12.0728 10.8182C11.8415 10.8573 11.6074 10.8771 11.3728 10.8773V11.5773H13.191L13.1819 16.8182Z" fill="white"/>
<path d="M6.8182 16.7636C7.13434 16.8705 7.46637 16.9227 7.80004 16.9182C8.12051 16.9196 8.43934 16.872 8.74551 16.7773C9.02488 16.6912 9.28441 16.5506 9.50914 16.3636C9.7323 16.173 9.91078 15.9355 10.0319 15.6682C10.1674 15.3653 10.2342 15.0362 10.2273 14.7045C10.2384 14.3001 10.1292 13.9015 9.91371 13.5591C9.69039 13.2284 9.34281 13.0021 8.95008 12.9318C9.22844 12.8016 9.4693 12.603 9.65008 12.3545C9.83781 12.101 9.93684 11.7927 9.93191 11.4773C9.93973 11.1765 9.88398 10.8776 9.76828 10.6C9.66695 10.3639 9.51121 10.1552 9.31375 9.99088C9.11461 9.82452 8.88438 9.69936 8.63648 9.62272C8.35891 9.54186 8.07102 9.50206 7.78195 9.50456C7.46125 9.49698 7.14246 9.55581 6.84559 9.67729C6.58645 9.78487 6.35492 9.94956 6.16832 10.1591C5.97848 10.3782 5.83473 10.6333 5.74559 10.9091C5.64547 11.2194 5.59035 11.5423 5.58196 11.8682H6.43195C6.43153 11.6624 6.45906 11.4575 6.51379 11.2591C6.56242 11.0767 6.64574 10.9054 6.75926 10.7546C6.87024 10.6088 7.01332 10.4906 7.17746 10.4091C7.36309 10.3201 7.56715 10.2765 7.77293 10.2819C8.10168 10.2674 8.42457 10.3724 8.68203 10.5773C8.93336 10.7987 9.06629 11.1252 9.04113 11.4592C9.04437 11.6365 9.00707 11.8121 8.93203 11.9728C8.86285 12.119 8.76191 12.2479 8.63656 12.3501C8.50809 12.4521 8.3616 12.5292 8.20473 12.5773C8.0384 12.6289 7.86524 12.6549 7.6911 12.6546H7.40926H7.31836V13.3955C7.48723 13.3741 7.65727 13.3635 7.82746 13.3637C8.02922 13.3616 8.23008 13.3907 8.42293 13.45C8.59141 13.5069 8.74621 13.5983 8.87746 13.7182C9.01437 13.8456 9.12277 14.0005 9.19566 14.1727C9.27832 14.3633 9.31863 14.5696 9.31383 14.7773C9.31758 14.9809 9.27562 15.1828 9.19109 15.3682C9.11211 15.5261 9.00238 15.6667 8.86836 15.7818L8.8502 15.7954C8.70555 15.918 8.53898 16.0121 8.3593 16.0727C8.16949 16.1395 7.96961 16.1733 7.7684 16.1727C7.34836 16.2005 6.93903 16.0327 6.6593 15.7182C6.4009 15.3831 6.2675 14.9683 6.28203 14.5454H5.43203C5.41957 14.8885 5.47199 15.2309 5.58657 15.5545C5.78656 16.1273 6.24188 16.5742 6.8182 16.7636Z" fill="white"/>
</g>
<defs>
<clipPath id="clip0_1_16">
<rect width="20" height="20" fill="white" transform="translate(119 1)"/>
</clipPath>
<clipPath id="clip1_1_16">
<rect width="20" height="20" fill="white"/>
</clipPath>
</defs>
</svg>
