<?xml version="1.0" standalone="no"?>
<!DOCTYPE svg PUBLIC "-//W3C//DTD SVG 20010904//EN"
 "http://www.w3.org/TR/2001/REC-SVG-20010904/DTD/svg10.dtd">
<svg version="1.0" xmlns="http://www.w3.org/2000/svg"
 width="311.000000pt" height="416.000000pt" viewBox="0 0 311.000000 416.000000"
 preserveAspectRatio="xMidYMid meet">

<g transform="translate(0.000000,416.000000) scale(0.100000,-0.100000)"
fill="#000000" stroke="none">
<path d="M2158 3965 c-3 -3 -28 -6 -56 -6 -29 -1 -52 -6 -52 -11 0 -5 -6 -6
-12 -2 -7 4 -4 -3 7 -16 l20 -23 -25 9 c-14 5 -45 8 -70 7 -24 -1 -47 2 -50 6
-3 5 -25 12 -49 16 -38 6 -47 3 -72 -21 -28 -27 -29 -27 -29 -6 0 29 -26 28
-33 0 -5 -16 2 -30 23 -51 16 -16 33 -26 39 -23 5 3 11 0 14 -8 8 -20 -20 -28
-45 -13 -16 9 -22 9 -25 0 -2 -7 -11 -9 -19 -6 -18 7 -62 -14 -86 -40 -11 -13
-29 -18 -60 -17 -23 1 -59 -3 -78 -9 -40 -13 -110 -15 -110 -3 0 4 -21 15 -46
25 -48 17 -73 15 -55 -6 6 -9 2 -12 -16 -13 -29 -2 -28 -2 -37 -36 -5 -22 -3
-25 12 -22 10 3 31 -7 50 -24 30 -27 35 -28 85 -21 50 8 53 8 76 -22 21 -27
25 -29 33 -15 5 9 13 14 18 11 5 -3 19 -1 30 5 16 9 22 8 26 -5 3 -8 15 -15
25 -15 11 0 29 -11 41 -25 11 -13 25 -22 29 -19 4 2 10 0 14 -5 3 -6 -7 -17
-23 -25 -23 -12 -32 -12 -42 -3 -10 9 -11 9 -6 0 4 -7 2 -13 -3 -13 -6 0 -11
-6 -11 -14 0 -8 -7 -17 -16 -20 -8 -3 -12 -10 -9 -16 8 -14 45 -13 45 1 0 6 9
9 20 6 11 -3 18 -1 14 4 -3 5 2 9 10 9 9 0 16 -4 16 -10 0 -5 13 -10 29 -10
17 0 33 -5 37 -11 8 -14 101 -4 164 18 25 9 91 17 150 19 58 2 129 9 159 14
29 5 57 7 62 4 5 -3 9 -1 9 5 0 5 8 8 18 7 9 -2 20 2 24 8 5 8 8 7 8 -2 0 -7
3 -11 8 -9 4 3 25 8 46 11 22 4 45 11 52 17 7 6 31 12 54 14 22 3 46 8 53 12
7 4 21 9 32 10 10 2 22 7 25 11 6 9 92 38 103 34 4 -1 7 2 7 8 0 5 -5 10 -10
10 -6 0 -9 5 -8 12 2 7 -3 13 -9 14 -7 1 -18 2 -24 3 -5 0 -8 5 -5 10 3 4 -5
6 -18 4 -13 -3 -30 2 -41 13 -12 12 -30 17 -56 15 -31 -1 -39 2 -39 15 0 21
59 76 73 67 6 -3 7 -1 3 5 -4 7 -17 12 -29 12 -35 0 -67 11 -61 21 5 9 4 10
-33 14 -13 1 -29 7 -36 14 -8 6 -27 9 -43 5 -23 -4 -36 1 -61 25 -18 16 -33
28 -33 25 0 -3 -7 2 -16 11 -13 13 -29 15 -73 11 -54 -6 -55 -6 -26 9 17 8 23
14 14 15 -9 0 -18 -2 -21 -5z m282 -239 c0 -2 -7 -7 -16 -10 -8 -3 -12 -2 -9
4 6 10 25 14 25 6z"/>
<path d="M455 3752 c-16 -11 -16 -32 -1 -32 17 0 38 24 29 33 -8 9 -15 9 -28
-1z"/>
<path d="M387 2764 c-3 -4 -46 -10 -94 -15 -48 -5 -97 -12 -108 -16 -20 -6
-20 -6 0 -14 14 -5 7 -8 -25 -7 -37 0 -41 1 -20 8 19 6 10 8 -35 9 -34 1 -66
6 -73 13 -9 9 -12 9 -12 -1 0 -7 -4 -9 -10 -6 -7 4 -10 -49 -10 -150 l0 -157
52 6 c68 9 138 27 138 36 0 4 33 7 73 8 39 0 92 5 117 10 25 6 80 8 122 6 43
-2 88 1 100 6 13 5 18 9 11 9 -6 1 -15 10 -18 21 -3 11 -13 20 -21 20 -17 0
-19 17 -2 22 17 6 51 -30 67 -69 7 -18 17 -33 22 -33 5 0 9 -7 9 -15 0 -14 24
-15 180 -13 115 2 180 -1 180 -7 0 -5 4 -4 9 3 13 21 153 32 212 17 16 -4 30
-2 33 4 9 14 76 15 76 1 0 -5 7 -10 16 -10 8 0 13 4 10 9 -12 19 110 28 149
11 11 -5 14 -9 8 -9 -7 -1 -13 -5 -13 -11 0 -6 28 -10 65 -10 39 0 65 4 65 10
0 7 6 8 16 2 12 -7 22 -4 36 10 13 13 29 17 56 15 20 -2 53 2 73 9 26 9 41 9
55 1 10 -6 53 -12 94 -12 98 -2 110 -4 85 -14 -13 -5 22 -11 95 -16 63 -4 129
-9 145 -11 17 -1 179 -3 360 -4 311 -1 392 -7 335 -25 -36 -11 -1 -26 54 -23
l45 3 -1 42 c0 37 -4 43 -22 42 -11 0 -63 2 -113 5 -67 3 -93 1 -93 -7 0 -9
-2 -9 -8 -1 -4 7 -26 14 -48 17 -36 5 -43 3 -52 -16 -8 -17 -11 -18 -11 -5 -1
25 -20 32 -29 10 -7 -19 -8 -19 -25 4 -17 23 -17 24 8 30 24 6 35 24 15 24
-24 0 -5 40 43 91 9 11 14 19 10 19 -4 0 -2 5 5 12 7 7 12 20 12 29 0 16 -16
17 -172 17 -106 0 -184 4 -201 11 -21 8 -40 8 -69 0 -22 -5 -46 -8 -53 -5 -7
2 -16 2 -20 -2 -11 -11 -105 -9 -105 2 0 7 -3 7 -8 1 -4 -5 -16 -11 -27 -12
-20 -1 -20 -1 -1 13 11 8 16 15 10 16 -5 0 14 4 41 7 28 4 53 5 57 3 8 -3 528
-8 524 -5 -10 10 -340 35 -380 28 -17 -2 -133 -7 -257 -9 -124 -3 -232 -8
-241 -11 -10 -4 -14 -14 -11 -26 3 -11 0 -19 -6 -19 -7 0 -9 5 -6 10 3 6 -3
10 -15 10 -12 0 -18 -4 -15 -10 9 -14 -5 -12 -38 5 -15 8 -25 10 -22 6 3 -5
-2 -12 -11 -15 -8 -3 -13 -2 -10 3 3 5 -1 12 -10 15 -8 3 -13 10 -10 14 6 11
-2 12 -89 17 -38 3 -137 9 -220 15 -145 11 -692 7 -922 -6 -73 -5 -103 -3
-103 5 0 12 -13 15 -23 5z m646 -16 c-5 -9 10 -11 44 -8 13 1 28 -2 34 -6 7
-4 43 -6 82 -5 46 2 67 -1 63 -8 -5 -7 -76 -10 -204 -9 -233 1 -357 14 -167
18 113 1 118 2 85 15 l-35 14 52 -2 c28 -1 49 -5 46 -9z m-230 -5 c-18 -2 -48
-2 -65 0 -18 2 -4 4 32 4 36 0 50 -2 33 -4z m120 0 c-7 -2 -19 -2 -25 0 -7 3
-2 5 12 5 14 0 19 -2 13 -5z m1210 -20 c-7 -2 -21 -2 -30 0 -10 3 -4 5 12 5
17 0 24 -2 18 -5z m-1456 -9 c-3 -3 -12 -4 -19 -1 -8 3 -5 6 6 6 11 1 17 -2
13 -5z m966 -1 c-7 -2 -19 -2 -25 0 -7 3 -2 5 12 5 14 0 19 -2 13 -5z m314 1
c-3 -3 -12 -4 -19 -1 -8 3 -5 6 6 6 11 1 17 -2 13 -5z m-784 -21 c-34 -2 -93
-2 -130 0 -37 2 -9 3 62 3 72 0 102 -1 68 -3z m925 0 c-10 -2 -26 -2 -35 0
-10 3 -2 5 17 5 19 0 27 -2 18 -5z m577 -13 c-3 -5 -13 -10 -21 -10 -8 0 -12
5 -9 10 3 6 13 10 21 10 8 0 12 -4 9 -10z m-338 -16 c-3 -3 -12 -4 -19 -1 -8
3 -5 6 6 6 11 1 17 -2 13 -5z m313 -4 c24 -15 -2 -35 -28 -21 -11 6 -36 12
-54 12 -32 2 -32 2 7 9 59 11 59 11 75 0z m-2077 -57 c-7 -2 -21 -2 -30 0 -10
3 -4 5 12 5 17 0 24 -2 18 -5z m1057 -17 c0 -6 4 -5 9 3 7 11 48 12 99 2 1 -1
2 -5 2 -10 0 -4 -69 -9 -152 -9 -165 0 -218 5 -196 19 19 13 238 8 238 -5z
m380 -12 c0 -6 -10 -10 -22 -8 -13 1 -45 3 -71 3 -27 1 -46 5 -43 9 7 12 136
9 136 -4z m70 6 c0 -12 -17 -12 -45 0 -17 7 -15 9 13 9 17 1 32 -3 32 -9z
m-950 -19 c0 -5 -7 -11 -15 -15 -8 -3 -15 -1 -15 5 0 6 -4 7 -10 4 -5 -3 -10
-1 -10 4 0 6 11 11 25 11 14 0 25 -4 25 -9z m1490 -18 c-1 -23 -13 -52 -21
-47 -5 3 -9 -3 -9 -13 0 -16 -6 -18 -40 -15 -39 4 -50 14 -30 27 6 3 10 11 10
16 0 6 -5 7 -12 3 -7 -4 -8 -3 -4 4 4 7 16 12 26 12 10 0 22 5 25 10 7 12 55
14 55 3z m28 -69 c0 -17 -4 -22 -11 -15 -5 5 -7 17 -4 25 9 23 15 19 15 -10z
m32 16 c0 -5 -5 -10 -11 -10 -5 0 -7 5 -4 10 3 6 8 10 11 10 2 0 4 -4 4 -10z
m0 -35 c0 -8 -4 -15 -10 -15 -5 0 -10 7 -10 15 0 8 5 15 10 15 6 0 10 -7 10
-15z"/>
<path d="M2588 2413 c7 -3 16 -2 19 1 4 3 -2 6 -13 5 -11 0 -14 -3 -6 -6z"/>
<path d="M948 2393 c7 -3 16 -2 19 1 4 3 -2 6 -13 5 -11 0 -14 -3 -6 -6z"/>
<path d="M2530 2390 c-12 -8 -11 -10 8 -10 12 0 22 5 22 10 0 13 -11 13 -30 0z"/>
<path d="M2655 2340 c-4 -7 6 -10 29 -8 19 1 32 6 30 10 -7 12 -52 10 -59 -2z"/>
<path d="M2254 2328 c-5 -7 -3 -8 6 -3 10 6 12 4 7 -8 -5 -14 0 -17 26 -17 28
1 30 2 13 11 -15 9 -16 13 -5 20 10 6 6 9 -13 9 -15 0 -30 -5 -34 -12z"/>
<path d="M2518 2333 c6 -2 18 -2 25 0 6 3 1 5 -13 5 -14 0 -19 -2 -12 -5z"/>
<path d="M3070 2336 c0 -2 7 -6 15 -10 8 -3 15 -1 15 4 0 6 -7 10 -15 10 -8 0
-15 -2 -15 -4z"/>
<path d="M2485 2311 c3 -5 -9 -11 -27 -13 -18 -2 23 -9 92 -16 69 -7 143 -15
165 -17 l40 -5 -35 10 c-19 5 -75 12 -123 16 -61 4 -90 11 -94 20 -3 8 -9 14
-15 14 -5 0 -7 -4 -3 -9z"/>
<path d="M2528 2303 c7 -3 16 -2 19 1 4 3 -2 6 -13 5 -11 0 -14 -3 -6 -6z"/>
<path d="M2795 2250 c40 -9 132 -13 124 -6 -2 2 -40 6 -84 9 -57 4 -69 3 -40
-3z"/>
<path d="M2975 2231 c62 -13 141 -20 124 -11 -7 4 -48 10 -89 13 -52 4 -63 4
-35 -2z"/>
<path d="M677 2032 c-4 -5 8 -19 25 -32 26 -19 47 -24 103 -26 38 -1 64 0 58
3 -20 7 -15 23 5 16 12 -4 14 -3 7 5 -19 21 -189 50 -198 34z"/>
<path d="M980 2029 c0 -5 9 -9 20 -9 11 0 20 2 20 4 0 2 -9 6 -20 9 -11 3 -20
1 -20 -4z"/>
<path d="M2010 2006 c0 -10 28 -13 41 -5 10 6 7 9 -13 9 -16 0 -28 -2 -28 -4z"/>
<path d="M2000 1980 c-9 -6 -10 -10 -3 -10 6 0 15 5 18 10 8 12 4 12 -15 0z"/>
<path d="M2160 1963 c0 -6 -12 -14 -27 -16 -27 -4 -27 -4 3 -6 18 0 45 6 60
14 18 9 23 15 12 15 -9 0 -20 -5 -24 -11 -4 -8 -9 -7 -15 2 -6 9 -9 10 -9 2z"/>
<path d="M2619 1943 c-1 -10 -1 -21 0 -25 0 -5 -11 -8 -25 -8 -16 0 -23 4 -18
11 4 8 -3 9 -22 5 -16 -3 -44 -7 -62 -8 -21 -1 -31 -7 -28 -14 3 -7 -2 -15
-10 -18 -8 -3 -14 -2 -14 3 0 4 -20 6 -45 5 -43 -2 -60 8 -32 20 6 3 -3 3 -22
0 -19 -3 -38 -7 -42 -9 -4 -3 -10 2 -13 11 -5 12 -13 14 -33 9 -16 -4 -29 -2
-34 6 -4 7 -14 9 -25 4 -11 -4 -30 -7 -43 -6 -14 2 -21 -1 -17 -8 5 -7 -2 -11
-18 -11 -14 0 -28 5 -31 10 -9 15 -58 13 -49 -2 6 -10 4 -10 -7 0 -16 15 -46
16 -55 1 -4 -7 0 -9 13 -5 13 4 20 2 20 -7 0 -11 -10 -11 -53 3 -29 9 -56 19
-60 23 -4 4 -11 7 -16 7 -17 0 5 -22 36 -36 30 -14 30 -15 4 -11 -16 2 -26 0
-25 -7 1 -6 -11 -10 -28 -9 -25 2 -27 0 -12 -8 10 -6 24 -8 32 -5 7 2 18 -1
25 -8 8 -10 7 -15 -5 -20 -10 -3 -14 -2 -9 5 4 6 -1 10 -12 8 -11 -1 -39 8
-64 20 -25 12 -34 20 -22 17 23 -4 23 -4 6 15 -17 19 -17 20 2 14 12 -4 11 -1
-5 8 -24 14 -51 13 -51 -3 0 -4 -23 -6 -51 -4 -46 3 -50 2 -38 -13 12 -14 11
-15 -6 -10 -11 3 -34 8 -52 12 -24 5 -30 10 -26 23 5 14 3 15 -8 5 -7 -7 -20
-13 -29 -13 -13 0 -13 2 0 11 12 9 12 10 1 7 -20 -6 -26 -28 -7 -28 8 0 17 -4
20 -9 3 -4 -6 -6 -19 -3 -14 2 -25 0 -25 -6 0 -6 -10 -13 -22 -16 -13 -2 -6
-4 14 -2 20 1 34 -2 32 -6 -7 -12 -74 -10 -74 2 0 6 -4 10 -9 10 -5 0 -7 -9
-4 -19 6 -23 -35 -41 -47 -21 -4 7 -12 10 -18 6 -5 -3 -16 1 -23 10 -8 9 -21
13 -35 10 -13 -4 -26 -1 -29 4 -4 6 -11 8 -16 4 -5 -3 -16 -1 -23 5 -21 17
-48 3 -40 -21 4 -15 3 -18 -7 -13 -9 6 -11 4 -6 -7 4 -12 1 -14 -15 -10 -16 4
-19 2 -13 -9 8 -12 6 -12 -8 0 -9 7 -26 11 -37 8 -11 -3 -20 -1 -20 4 0 5 -10
9 -22 10 -13 0 -17 3 -10 6 6 2 10 9 6 14 -7 12 -44 11 -44 -1 0 -6 -16 -3
-38 6 -39 17 -89 27 -132 25 -172 -7 -240 -6 -268 1 -18 5 -30 13 -28 17 3 4
0 8 -7 8 -7 0 -25 4 -42 8 -19 4 -25 3 -17 -3 9 -6 -6 -9 -45 -9 -32 -1 -71
-4 -88 -8 -29 -7 -29 -7 -10 9 25 20 -1 22 -27 2 -19 -14 -25 -32 -8 -21 6 3
10 2 10 -4 0 -19 -66 -29 -112 -16 -19 5 -28 3 -28 -5 0 -6 4 -8 10 -5 20 12
32 -7 13 -21 -16 -13 -15 -13 10 -4 42 15 49 13 37 -10 -9 -16 -8 -20 5 -20 8
0 15 5 15 11 0 6 7 4 15 -5 24 -23 19 -26 -45 -26 -33 0 -60 4 -60 10 0 6 -16
10 -36 10 -21 0 -33 4 -29 10 3 6 -1 10 -10 10 -9 0 -14 4 -10 9 3 5 0 13 -6
17 -8 4 -9 3 -5 -4 4 -7 1 -12 -8 -12 -9 0 -16 -4 -16 -10 0 -5 -5 -10 -11
-10 -5 0 -8 4 -5 8 2 4 1 14 -3 21 -9 14 -61 5 -61 -11 0 -6 9 -8 20 -5 11 3
18 1 14 -4 -3 -5 -12 -9 -20 -9 -12 0 -14 -60 -14 -409 0 -382 1 -410 17 -414
17 -4 17 -5 1 -6 -17 -1 -18 -32 -18 -496 l0 -495 880 0 880 0 0 25 c0 28 3
29 31 14 16 -8 18 -13 8 -25 -10 -12 78 -14 650 -14 l661 0 0 799 0 800 -23 4
-22 4 23 2 c20 1 22 6 22 67 0 52 -4 70 -17 80 -13 10 -14 13 -3 9 10 -4 16 1
17 13 1 15 -7 19 -40 20 -23 2 -50 5 -59 8 -21 6 -24 -6 -6 -24 23 -23 -1 -12
-28 13 -28 26 -51 34 -38 13 5 -8 2 -9 -12 -3 -25 11 -53 11 -83 1 -16 -6 -21
-5 -17 3 5 7 -1 11 -14 11 -12 0 -19 4 -16 9 3 4 -3 16 -14 26 -11 10 -17 21
-15 25 3 4 -8 15 -23 24 l-27 17 24 -20 23 -21 -26 0 c-15 0 -24 4 -21 10 3 5
-6 12 -21 16 -19 5 -22 9 -12 15 9 6 7 9 -9 9 -14 0 -23 6 -23 15 0 21 -30 19
-31 -2z m-539 -33 c0 -5 -5 -10 -11 -10 -5 0 -7 5 -4 10 3 6 8 10 11 10 2 0 4
-4 4 -10z m440 -26 c0 -2 -9 0 -20 6 -11 6 -20 13 -20 16 0 2 9 0 20 -6 11 -6
20 -13 20 -16z m-1892 -14 c3 0 3 -2 0 -5 -5 -6 -78 22 -78 30 0 3 16 -2 36
-10 20 -8 39 -15 42 -15z m2057 12 c-3 -3 -11 0 -18 7 -9 10 -8 11 6 5 10 -3
15 -9 12 -12z m-2300 -2 c8 -13 -5 -13 -25 0 -13 8 -13 10 2 10 9 0 20 -4 23
-10z m465 -10 c0 -5 -2 -10 -4 -10 -3 0 -8 5 -11 10 -3 6 -1 10 4 10 6 0 11
-4 11 -10z m-493 -6 c-3 -3 -12 -4 -19 -1 -8 3 -5 6 6 6 11 1 17 -2 13 -5z
m2406 -9 c-3 -15 -17 -16 -37 -2 -16 12 -15 13 11 12 15 0 27 -4 26 -10z
m-809 -10 c-7 -16 -24 -21 -24 -6 0 8 7 13 27 20 1 1 0 -6 -3 -14z m-1239 -17
c3 -3 -16 -8 -44 -9 -30 -3 -52 0 -55 7 -4 11 87 14 99 2z m825 2 c0 -5 -6
-10 -14 -10 -8 0 -18 5 -21 10 -3 6 3 10 14 10 12 0 21 -4 21 -10z m-454 -8
c6 -4 13 -15 17 -24 5 -14 -1 -17 -44 -16 -54 0 -67 12 -18 15 38 3 48 11 29
23 -8 6 -10 10 -5 10 6 0 15 -4 21 -8z m1689 -2 c3 -5 1 -10 -4 -10 -6 0 -11
5 -11 10 0 6 2 10 4 10 3 0 8 -4 11 -10z m-1500 -10 c-3 -5 -15 -10 -26 -10
-10 0 -19 -5 -19 -11 0 -6 7 -9 15 -5 8 3 15 2 15 -3 0 -5 -13 -11 -30 -13
-34 -5 -38 2 -12 24 27 24 69 37 57 18z m151 1 c-3 -5 -15 -7 -26 -4 -28 7
-25 13 6 13 14 0 23 -4 20 -9z m564 -1 c0 -5 -2 -10 -4 -10 -3 0 -8 5 -11 10
-3 6 -1 10 4 10 6 0 11 -4 11 -10z m-477 -7 c-7 -2 -19 -2 -25 0 -7 3 -2 5 12
5 14 0 19 -2 13 -5z m-1438 -23 c-22 -8 -47 -2 -40 10 2 4 17 5 32 2 24 -5 25
-6 8 -12z m362 -3 c3 -4 -10 -7 -31 -7 -20 0 -35 4 -32 8 5 9 53 8 63 -1z
m998 3 c-3 -5 -11 -10 -16 -10 -6 0 -7 5 -4 10 3 6 11 10 16 10 6 0 7 -4 4
-10z m-950 -10 c3 -5 -1 -10 -9 -10 -9 0 -16 5 -16 10 0 6 4 10 9 10 6 0 13
-4 16 -10z m842 -6 c-3 -3 -12 -4 -19 -1 -8 3 -5 6 6 6 11 1 17 -2 13 -5z
m1643 -4 c8 -5 11 -10 5 -10 -5 0 -17 5 -25 10 -8 5 -10 10 -5 10 6 0 17 -5
25 -10z m-1770 -48 c0 -25 -74 -60 -86 -41 -3 5 0 9 6 9 7 0 23 9 37 20 27 21
43 25 43 12z m-1065 -31 c3 -5 1 -12 -4 -15 -5 -3 -11 1 -15 9 -6 16 9 21 19
6z m2952 -706 c0 -8 -4 -12 -9 -9 -5 3 -6 10 -3 15 9 13 12 11 12 -6z m-227
-65 c0 -5 -7 -10 -15 -10 -8 0 -15 5 -15 10 0 6 7 10 15 10 8 0 15 -4 15 -10z
m-60 -60 c0 -5 -2 -10 -4 -10 -3 0 -8 5 -11 10 -3 6 -1 10 4 10 6 0 11 -4 11
-10z m-795 -110 c3 -5 -1 -10 -9 -10 -9 0 -16 5 -16 10 0 6 4 10 9 10 6 0 13
-4 16 -10z m-230 -30 c3 -6 -1 -7 -9 -4 -18 7 -21 14 -7 14 6 0 13 -4 16 -10z
m-350 -91 c12 -18 -3 -22 -20 -5 -14 14 -14 16 -1 16 8 0 18 -5 21 -11z m-350
-229 c3 -5 1 -10 -4 -10 -6 0 -11 5 -11 10 0 6 2 10 4 10 3 0 8 -4 11 -10z
m-505 -154 c0 -3 -4 -8 -10 -11 -5 -3 -10 -1 -10 4 0 6 5 11 10 11 6 0 10 -2
10 -4z m380 -186 c0 -5 -2 -10 -4 -10 -3 0 -8 5 -11 10 -3 6 -1 10 4 10 6 0
11 -4 11 -10z m-180 -24 c0 -3 -4 -8 -10 -11 -5 -3 -10 -1 -10 4 0 6 5 11 10
11 6 0 10 -2 10 -4z"/>
<path d="M7 1873 c6 -15 9 -15 38 -4 17 7 16 9 -11 13 -24 3 -31 1 -27 -9z"/>
<path d="M167 1859 c7 -7 15 -10 18 -7 3 3 -2 9 -12 12 -14 6 -15 5 -6 -5z"/>
<path d="M1415 1850 c-3 -5 -2 -10 4 -10 5 0 13 5 16 10 3 6 2 10 -4 10 -5 0
-13 -4 -16 -10z"/>
<path d="M2860 1835 c0 -8 2 -15 4 -15 2 0 6 7 10 15 3 8 1 15 -4 15 -6 0 -10
-7 -10 -15z"/>
</g>
</svg>
