<?xml version="1.0" standalone="no"?>
<!DOCTYPE svg PUBLIC "-//W3C//DTD SVG 20010904//EN"
 "http://www.w3.org/TR/2001/REC-SVG-20010904/DTD/svg10.dtd">
<svg version="1.0" xmlns="http://www.w3.org/2000/svg"
 width="311.000000pt" height="416.000000pt" viewBox="0 0 311.000000 416.000000"
 preserveAspectRatio="xMidYMid meet">

<g transform="translate(0.000000,416.000000) scale(0.100000,-0.100000)"
fill="#000000" stroke="none">
<path d="M415 4145 c11 -8 25 -19 32 -25 20 -16 36 -12 30 9 -6 23 18 18 27
-6 5 -13 9 -13 23 -2 14 12 16 12 9 0 -5 -8 -4 -16 3 -20 20 -13 71 1 82 21 7
12 7 18 1 14 -5 -3 -12 1 -16 9 -4 12 -26 15 -108 15 -92 -1 -101 -2 -83 -15z"/>
<path d="M805 4150 c-11 -4 -26 -5 -32 -3 -7 3 -13 0 -13 -6 0 -6 19 -11 43
-12 23 0 51 -5 62 -10 15 -7 7 -8 -27 -4 -64 6 -68 -8 -7 -29 27 -10 49 -22
49 -27 0 -5 10 -19 22 -31 19 -19 21 -19 14 -2 -5 10 -8 24 -7 29 9 66 7 69
-39 86 -26 9 -53 13 -65 9z"/>
<path d="M1007 4147 c-3 -8 11 -57 31 -110 31 -84 39 -97 59 -97 23 0 23 0 6
38 -10 20 -27 48 -40 62 -27 31 -57 100 -43 100 5 0 10 5 10 10 0 15 -17 12
-23 -3z m81 -192 c-3 -3 -9 2 -12 12 -6 14 -5 15 5 6 7 -7 10 -15 7 -18z"/>
<path d="M1156 4135 c9 -14 19 -24 21 -21 6 6 -20 46 -30 46 -4 0 0 -11 9 -25z"/>
<path d="M1417 4147 c-3 -9 7 -20 31 -31 30 -13 33 -13 18 -1 -18 14 -18 15
-2 15 27 0 13 25 -16 28 -15 2 -28 -3 -31 -11z"/>
<path d="M2347 4147 c-7 -18 4 -32 23 -32 22 1 40 14 40 31 0 18 -56 19 -63 1z"/>
<path d="M2460 4150 c0 -16 35 -29 51 -19 12 8 12 10 -1 19 -19 13 -50 13 -50
0z"/>
<path d="M2540 4156 c0 -2 8 -10 18 -17 15 -13 16 -12 3 4 -13 16 -21 21 -21
13z"/>
<path d="M2575 4150 c3 -5 11 -10 16 -10 6 0 7 5 4 10 -3 6 -11 10 -16 10 -6
0 -7 -4 -4 -10z"/>
<path d="M2680 4145 c0 -8 7 -15 16 -15 10 0 14 -6 11 -14 -3 -8 1 -20 9 -26
9 -8 14 -9 14 -2 0 6 -6 13 -12 15 -9 4 -9 6 -1 6 8 1 8 7 0 26 -13 27 -37 34
-37 10z"/>
<path d="M2991 4137 c13 -13 33 -27 44 -31 32 -13 75 -12 75 2 0 6 -7 12 -15
12 -8 0 -15 5 -15 10 0 6 5 10 10 10 6 0 10 5 10 10 0 16 -50 11 -57 -5 -5
-14 -8 -14 -29 0 -35 23 -50 18 -23 -8z"/>
<path d="M952 4088 c6 -29 13 -55 17 -58 4 -3 12 -20 17 -39 15 -53 34 -52 22
1 -10 42 -54 148 -62 148 -2 0 1 -24 6 -52z"/>
<path d="M2607 4116 c-14 -21 -14 -26 -2 -42 14 -18 15 -18 21 4 3 12 10 22
14 22 4 0 10 9 13 20 7 29 -27 26 -46 -4z"/>
<path d="M2786 4091 c28 -16 68 -32 90 -35 l39 -6 -35 16 c-19 9 -52 24 -72
35 -59 30 -78 22 -22 -10z"/>
<path d="M1496 4098 c3 -5 10 -6 15 -3 13 9 11 12 -6 12 -8 0 -12 -4 -9 -9z"/>
<path d="M368 4093 c-15 -4 -35 -33 -22 -33 9 0 64 30 64 35 0 6 -17 5 -42 -2z"/>
<path d="M2285 4089 c-4 -6 -5 -12 -2 -15 2 -3 7 2 10 11 7 17 1 20 -8 4z"/>
<path d="M790 4086 c0 -2 7 -7 16 -10 8 -3 12 -2 9 4 -6 10 -25 14 -25 6z"/>
<path d="M2180 4081 c0 -7 -4 -9 -10 -6 -5 3 -10 1 -10 -4 0 -6 4 -11 9 -11
13 0 25 20 17 27 -3 4 -6 1 -6 -6z"/>
<path d="M732 4072 c-13 -2 -20 -8 -16 -14 5 -8 1 -9 -12 -4 -10 4 -34 9 -52
11 -27 3 -31 1 -21 -11 6 -8 8 -14 3 -14 -5 0 -2 -5 6 -11 12 -8 10 -10 -11
-6 -16 2 -26 -1 -26 -9 0 -7 4 -11 9 -8 4 3 8 0 8 -5 0 -6 -6 -11 -13 -11 -8
0 -14 -6 -15 -12 0 -7 -3 -32 -7 -55 -3 -24 -2 -43 2 -43 8 0 38 44 62 92 13
26 24 31 101 43 45 8 46 10 24 37 -12 15 -27 22 -42 20z m-112 -117 c0 -8 -4
-15 -10 -15 -5 0 -10 7 -10 15 0 8 5 15 10 15 6 0 10 -7 10 -15z"/>
<path d="M2330 4071 c0 -6 4 -13 10 -16 6 -3 7 1 4 9 -7 18 -14 21 -14 7z"/>
<path d="M2571 4063 c-7 -8 -11 -16 -8 -19 6 -7 37 7 37 16 0 16 -15 18 -29 3z"/>
<path d="M3035 4060 c8 -24 -2 -26 -27 -3 -10 9 -20 14 -23 11 -9 -9 6 -36 23
-42 9 -3 28 -13 42 -23 25 -17 25 -17 8 2 -12 15 -14 25 -7 38 6 9 15 14 21
11 6 -4 9 -1 6 6 -2 7 -14 15 -27 17 -18 2 -21 0 -16 -17z"/>
<path d="M2200 4051 c0 -6 4 -13 10 -16 6 -3 7 1 4 9 -7 18 -14 21 -14 7z"/>
<path d="M2370 4051 c0 -5 7 -15 17 -22 15 -13 15 -12 4 9 -12 23 -21 28 -21
13z"/>
<path d="M2930 4041 c0 -5 5 -13 10 -16 6 -3 10 -2 10 4 0 5 -4 13 -10 16 -5
3 -10 2 -10 -4z"/>
<path d="M2966 4024 c-3 -9 -4 -20 0 -25 3 -5 -1 -9 -8 -9 -8 0 -23 -7 -34
-15 -18 -14 -17 -15 11 -9 39 9 59 24 46 37 -5 5 -7 16 -4 23 3 8 3 14 0 14
-3 0 -8 -7 -11 -16z"/>
<path d="M816 4021 c-3 -4 1 -17 8 -27 13 -17 14 -17 9 9 -6 29 -9 32 -17 18z"/>
<path d="M2843 4019 c-14 -14 4 -72 19 -63 6 4 6 10 -1 17 -6 6 -7 16 -1 28
12 21 -2 33 -17 18z"/>
<path d="M2912 4010 c0 -14 2 -19 5 -12 2 6 2 18 0 25 -3 6 -5 1 -5 -13z"/>
<path d="M2156 4003 c-6 -14 -5 -15 5 -6 7 7 10 15 7 18 -3 3 -9 -2 -12 -12z"/>
<path d="M558 3989 c-2 -7 -29 -11 -71 -10 -47 0 -67 -3 -67 -12 0 -8 -3 -9
-8 -1 -4 7 -24 8 -57 4 -53 -8 -52 -13 3 -10 18 1 32 -3 32 -10 0 -6 -4 -8
-10 -5 -6 4 -10 -6 -9 -22 0 -25 1 -26 9 -8 5 11 9 15 9 8 1 -7 8 -10 16 -7 8
4 15 1 15 -5 0 -6 9 -20 19 -30 19 -19 19 -20 -10 -26 -45 -10 -34 -33 26 -55
l30 -10 -25 19 c-21 16 -23 22 -12 33 11 11 12 10 7 -4 -5 -13 0 -19 19 -24
14 -3 24 -9 22 -13 -7 -11 106 -3 118 9 16 16 -6 44 -38 48 -32 4 -35 -13 -3
-23 20 -7 19 -8 -11 -12 -56 -7 -87 18 -42 32 11 3 20 14 20 23 0 9 9 31 20
47 11 17 20 38 20 47 0 20 -17 33 -22 17z m-83 -59 c3 -5 1 -10 -4 -10 -6 0
-11 5 -11 10 0 6 2 10 4 10 3 0 8 -4 11 -10z m22 -50 c-1 -11 -7 -20 -14 -20
-10 0 -11 5 -4 19 6 10 7 22 3 26 -4 5 -2 5 5 1 6 -3 11 -15 10 -26z"/>
<path d="M1680 3960 c0 -11 2 -20 4 -20 2 0 6 9 9 20 3 11 1 20 -4 20 -5 0 -9
-9 -9 -20z"/>
<path d="M920 3955 c0 -12 8 -16 33 -13 17 2 32 8 32 13 0 6 -15 11 -32 13
-25 3 -33 -1 -33 -13z"/>
<path d="M2965 3960 c-16 -7 -17 -9 -3 -9 9 -1 20 4 23 9 7 11 7 11 -20 0z"/>
<path d="M268 3943 c7 -3 16 -2 19 1 4 3 -2 6 -13 5 -11 0 -14 -3 -6 -6z"/>
<path d="M1175 3940 c3 -5 11 -10 16 -10 6 0 7 5 4 10 -3 6 -11 10 -16 10 -6
0 -7 -4 -4 -10z"/>
<path d="M2227 3930 c-3 -11 -1 -18 3 -15 5 3 11 1 15 -5 4 -6 11 -8 16 -5 5
4 9 0 9 -7 0 -10 3 -9 10 2 6 10 3 20 -10 32 -25 23 -36 23 -43 -2z"/>
<path d="M2323 3885 c0 -58 1 -63 17 -55 10 5 20 18 23 30 4 16 2 18 -13 10
-16 -9 -18 -6 -13 29 3 21 1 41 -4 44 -5 3 -9 -23 -10 -58z"/>
<path d="M2392 3930 c13 -20 28 -27 28 -12 0 12 -14 27 -28 30 -10 2 -10 -2 0
-18z"/>
<path d="M667 3910 c3 -14 14 -33 24 -43 11 -10 19 -31 19 -47 0 -21 10 -36
39 -59 21 -17 43 -31 48 -31 6 0 18 -9 28 -20 10 -11 14 -20 10 -20 -4 0 5
-11 21 -25 16 -14 35 -25 42 -25 6 0 12 -5 12 -12 0 -6 3 -9 6 -5 4 3 13 0 21
-8 16 -17 53 -20 53 -5 0 6 -7 11 -15 11 -35 3 -40 6 -37 18 2 8 -3 11 -12 8
-10 -4 -20 1 -26 13 -13 24 -13 30 1 30 5 0 7 -5 3 -12 -4 -7 -3 -8 5 -4 6 4
8 12 5 18 -4 7 -2 8 4 4 7 -4 12 -14 12 -22 0 -8 5 -12 11 -9 5 4 19 -1 30
-11 10 -9 19 -13 19 -8 0 5 -20 24 -44 42 -43 32 -63 41 -51 22 16 -26 -42 -1
-79 34 -12 10 -15 15 -7 11 8 -5 29 -10 45 -11 17 -1 42 -5 56 -9 19 -4 16 -1
-10 13 -19 11 -38 18 -42 16 -4 -2 -32 8 -64 23 -43 20 -63 37 -83 71 -14 24
-31 51 -38 60 -10 15 -11 13 -6 -8z"/>
<path d="M1140 3911 c11 -22 30 -37 30 -24 -1 11 -26 43 -34 43 -4 0 -2 -9 4
-19z"/>
<path d="M2477 3908 c-7 -5 1 -8 21 -8 17 0 32 4 32 9 0 11 -35 10 -53 -1z"/>
<path d="M2840 3901 c0 -5 7 -15 17 -22 15 -13 15 -12 4 9 -12 23 -21 28 -21
13z"/>
<path d="M730 3860 c0 -5 5 -10 11 -10 5 0 7 5 4 10 -3 6 -8 10 -11 10 -2 0
-4 -4 -4 -10z"/>
<path d="M2810 3851 c0 -6 4 -13 10 -16 6 -3 7 1 4 9 -7 18 -14 21 -14 7z"/>
<path d="M839 3809 c12 -12 25 -18 28 -15 4 3 -2 13 -13 21 -29 22 -41 18 -15
-6z"/>
<path d="M238 3812 c-10 -2 -18 -8 -18 -13 0 -11 57 -11 85 0 17 7 14 9 -15
12 -19 2 -43 3 -52 1z"/>
<path d="M1752 3811 c-11 -7 -11 -9 1 -14 16 -6 27 0 27 15 0 10 -11 10 -28
-1z"/>
<path d="M2850 3812 c0 -5 7 -15 15 -22 8 -7 15 -8 15 -2 0 5 -7 15 -15 22 -8
7 -15 8 -15 2z"/>
<path d="M1110 3802 c0 -6 -7 -9 -16 -5 -12 4 -15 2 -12 -8 5 -16 58 -26 58
-11 0 5 -7 15 -15 22 -10 8 -15 9 -15 2z"/>
<path d="M2148 3793 c7 -3 16 -2 19 1 4 3 -2 6 -13 5 -11 0 -14 -3 -6 -6z"/>
<path d="M2730 3794 c0 -5 7 -18 15 -28 8 -11 15 -16 15 -10 0 5 -7 18 -15 28
-8 11 -15 16 -15 10z"/>
<path d="M2594 3758 c17 -13 48 -34 70 -47 37 -22 39 -22 23 -4 -10 11 -41 32
-70 47 -47 24 -49 24 -23 4z"/>
<path d="M2195 3759 c7 -11 35 -12 35 -1 0 4 -9 8 -20 9 -11 1 -18 -2 -15 -8z"/>
<path d="M944 3745 c11 -8 25 -15 30 -15 6 0 2 7 -8 15 -11 8 -25 15 -30 15
-6 0 -2 -7 8 -15z"/>
<path d="M530 3740 c8 -5 22 -9 30 -9 10 0 8 3 -5 9 -27 12 -43 12 -25 0z"/>
<path d="M1926 3736 c3 -8 13 -16 22 -19 9 -3 26 -8 37 -12 11 -5 3 4 -18 19
-43 30 -48 31 -41 12z"/>
<path d="M608 3703 c6 -2 18 -2 25 0 6 3 1 5 -13 5 -14 0 -19 -2 -12 -5z"/>
<path d="M1776 3702 c-3 -5 1 -9 9 -9 8 0 12 4 9 9 -3 4 -7 8 -9 8 -2 0 -6 -4
-9 -8z"/>
<path d="M2410 3703 c0 -3 20 -23 45 -45 25 -22 43 -44 39 -49 -3 -5 2 -9 10
-9 23 0 19 11 -14 44 -16 16 -27 32 -25 37 3 4 1 10 -5 14 -14 9 -50 15 -50 8z"/>
<path d="M798 3637 c34 -35 60 -66 57 -69 -3 -3 5 -4 17 -3 13 1 29 3 36 4 8
1 4 10 -11 24 -13 12 -26 30 -30 40 -4 10 -11 16 -16 12 -5 -3 -30 8 -54 25
-68 46 -68 36 1 -33z"/>
<path d="M1015 3690 c3 -5 16 -15 28 -21 22 -12 22 -12 3 10 -19 21 -43 30
-31 11z"/>
<path d="M1911 3683 c7 -12 15 -20 18 -17 3 2 -3 12 -13 22 -17 16 -18 16 -5
-5z"/>
<path d="M3008 3693 c6 -2 18 -2 25 0 6 3 1 5 -13 5 -14 0 -19 -2 -12 -5z"/>
<path d="M3050 3686 c0 -2 7 -7 16 -10 8 -3 12 -2 9 4 -6 10 -25 14 -25 6z"/>
<path d="M1800 3669 c0 -11 27 -12 34 -1 2 4 -4 9 -15 9 -10 1 -19 -2 -19 -8z"/>
<path d="M2230 3671 c0 -5 5 -13 10 -16 6 -3 10 -2 10 4 0 5 -4 13 -10 16 -5
3 -10 2 -10 -4z"/>
<path d="M3026 3661 c-3 -5 1 -11 9 -15 8 -3 15 -1 15 4 0 13 -18 22 -24 11z"/>
<path d="M1010 3618 c0 -9 5 -20 10 -23 13 -8 13 5 0 25 -8 13 -10 13 -10 -2z"/>
<path d="M1845 3620 c3 -5 8 -10 11 -10 2 0 4 5 4 10 0 6 -5 10 -11 10 -5 0
-7 -4 -4 -10z"/>
<path d="M2334 3621 c4 -5 0 -11 -6 -14 -7 -2 -1 -4 14 -3 20 1 24 4 16 14
-12 14 -32 17 -24 3z"/>
<path d="M1910 3617 c0 -10 39 -97 44 -97 5 0 -28 87 -37 96 -4 4 -7 5 -7 1z"/>
<path d="M2726 3607 c3 -10 9 -15 12 -12 3 3 0 11 -7 18 -10 9 -11 8 -5 -6z"/>
<path d="M1600 3591 c0 -13 12 -26 30 -36 17 -9 30 -11 30 -5 0 5 -5 10 -11
10 -5 0 -9 10 -7 23 2 16 -3 23 -19 25 -18 3 -23 -2 -23 -17z m32 2 c-6 -2 -9
-10 -6 -15 4 -7 2 -8 -5 -4 -13 9 -5 26 12 25 9 0 8 -2 -1 -6z"/>
<path d="M1070 3591 c0 -5 7 -12 16 -15 14 -5 15 -4 4 9 -14 17 -20 19 -20 6z"/>
<path d="M1235 3589 c-10 -15 3 -25 16 -12 7 7 7 13 1 17 -6 3 -14 1 -17 -5z"/>
<path d="M2350 3582 c0 -5 3 -12 8 -16 4 -4 7 -11 7 -14 1 -4 6 -17 13 -28 6
-12 8 -25 4 -30 -4 -5 1 -2 11 5 14 11 17 11 17 -1 0 -8 11 -20 25 -26 15 -7
25 -8 25 -2 0 6 -4 10 -10 10 -5 0 -10 5 -10 10 0 6 3 9 8 9 21 -4 31 2 26 15
-3 9 -12 12 -21 9 -12 -5 -14 -3 -8 7 6 9 4 11 -5 5 -8 -5 -18 -2 -26 9 -7 10
-21 19 -31 21 -10 1 -17 8 -15 14 1 6 -2 11 -8 11 -5 0 -10 -4 -10 -8z"/>
<path d="M785 3571 c-3 -5 -1 -12 5 -16 6 -4 8 -10 5 -14 -2 -5 13 -22 35 -40
34 -27 40 -29 40 -13 0 10 -13 28 -30 40 -16 13 -30 29 -30 37 0 17 -16 20
-25 6z"/>
<path d="M1120 3574 c0 -13 18 -39 24 -34 2 3 -2 14 -10 24 -8 11 -14 16 -14
10z"/>
<path d="M830 3549 c7 -11 14 -19 16 -16 7 7 -7 37 -17 37 -6 0 -5 -9 1 -21z"/>
<path d="M1073 3553 c9 -9 20 -13 24 -9 4 4 1 11 -7 16 -25 16 -35 11 -17 -7z"/>
<path d="M1709 3549 c13 -11 26 -17 29 -14 7 6 -29 34 -43 34 -5 0 1 -9 14
-20z"/>
<path d="M923 3552 c-17 -11 21 -54 41 -46 25 9 19 34 -6 31 -14 -1 -22 3 -20
11 2 14 1 14 -15 4z"/>
<path d="M955 3550 c-3 -6 1 -7 9 -4 18 7 21 14 7 14 -6 0 -13 -4 -16 -10z"/>
<path d="M1002 3540 c0 -14 2 -19 5 -12 2 6 2 18 0 25 -3 6 -5 1 -5 -13z"/>
<path d="M1410 3550 c0 -5 5 -10 10 -10 6 0 10 5 10 10 0 6 -4 10 -10 10 -5 0
-10 -4 -10 -10z"/>
<path d="M1670 3543 c0 -6 14 -21 30 -33 17 -12 30 -17 30 -11 0 6 -10 16 -22
22 -13 7 -26 17 -30 23 -6 8 -8 8 -8 -1z"/>
<path d="M2485 3530 c-3 -5 -1 -10 4 -10 6 0 11 5 11 10 0 6 -2 10 -4 10 -3 0
-8 -4 -11 -10z"/>
<path d="M1035 3519 c-15 -5 -16 -8 -4 -8 15 -1 24 -15 47 -73 8 -20 16 -26
29 -22 14 5 15 4 4 -4 -10 -7 -6 -9 15 -8 16 1 35 5 41 9 9 6 11 3 6 -9 -7
-19 -4 -18 49 8 34 16 37 31 5 23 -16 -4 -29 1 -47 21 -24 26 -24 26 -2 15 12
-6 22 -9 22 -5 0 3 8 0 17 -7 9 -8 14 -9 10 -2 -19 31 -157 76 -192 62z m85
-39 c0 -13 -5 -18 -14 -14 -8 3 -12 12 -9 20 8 21 23 17 23 -6z m25 0 c3 -5 1
-10 -4 -10 -6 0 -11 5 -11 10 0 6 2 10 4 10 3 0 8 -4 11 -10z"/>
<path d="M1310 3516 c0 -8 -6 -17 -12 -19 -8 -3 -6 -6 5 -6 11 -1 17 6 17 19
0 11 -2 20 -5 20 -3 0 -5 -6 -5 -14z"/>
<path d="M1770 3522 c0 -4 9 -13 20 -20 11 -7 20 -9 20 -4 0 4 -9 13 -20 20
-11 7 -20 9 -20 4z"/>
<path d="M2645 3520 c-3 -5 3 -10 14 -10 12 0 21 5 21 10 0 6 -6 10 -14 10 -8
0 -18 -4 -21 -10z"/>
<path d="M1174 3505 c22 -17 36 -19 36 -6 0 10 -24 21 -43 21 -7 0 -3 -7 7
-15z"/>
<path d="M1370 3509 c0 -5 5 -7 10 -4 6 3 10 8 10 11 0 2 -4 4 -10 4 -5 0 -10
-5 -10 -11z"/>
<path d="M2030 3495 c0 -8 12 -20 26 -25 16 -7 31 -25 41 -50 9 -22 20 -40 26
-40 5 0 4 7 -3 15 -7 9 -10 18 -7 22 11 11 -21 58 -52 76 -27 16 -31 16 -31 2z"/>
<path d="M620 3480 c-37 -15 -42 -19 -25 -25 11 -3 28 -11 38 -16 19 -10 37
-4 37 12 0 5 -7 9 -15 9 -8 0 -15 5 -15 10 0 6 7 10 15 10 8 0 15 5 15 10 0 6
-1 10 -2 9 -2 -1 -23 -9 -48 -19z"/>
<path d="M1000 3486 c0 -2 7 -9 15 -16 9 -7 15 -8 15 -2 0 5 -7 12 -15 16 -8
3 -15 4 -15 2z"/>
<path d="M1760 3480 c0 -5 5 -10 10 -10 6 0 10 5 10 10 0 6 -4 10 -10 10 -5 0
-10 -4 -10 -10z"/>
<path d="M2916 3455 c4 -8 8 -15 10 -15 2 0 4 7 4 15 0 8 -4 15 -10 15 -5 0
-7 -7 -4 -15z"/>
<path d="M2052 3435 c0 -16 2 -22 5 -12 2 9 2 23 0 30 -3 6 -5 -1 -5 -18z"/>
<path d="M2698 3438 c14 -15 35 -23 60 -24 22 0 44 -4 51 -8 6 -4 11 -2 11 3
0 11 -13 15 -37 12 -7 -1 -30 7 -52 19 -52 26 -61 25 -33 -2z"/>
<path d="M515 3431 c-9 -15 8 -35 24 -30 8 3 7 10 -2 23 -10 14 -16 16 -22 7z"/>
<path d="M1043 3410 c2 -23 26 -35 41 -20 8 8 6 15 -8 26 -27 19 -35 18 -33
-6z"/>
<path d="M585 3410 c-3 -5 1 -10 10 -10 9 0 13 5 10 10 -3 6 -8 10 -10 10 -2
0 -7 -4 -10 -10z"/>
<path d="M1577 3403 c-17 -4 -21 -25 -4 -24 4 1 13 1 20 1 8 0 14 7 14 15 0 8
-3 14 -6 14 -3 -1 -14 -3 -24 -6z"/>
<path d="M2063 3394 c-3 -8 -1 -20 6 -27 8 -8 11 -4 9 16 -3 31 -6 34 -15 11z"/>
<path d="M465 3380 c-16 -17 -16 -20 -2 -20 9 0 19 5 22 10 4 6 12 7 18 3 7
-4 6 0 -2 10 -17 21 -14 21 -36 -3z"/>
<path d="M1522 3388 c6 -18 28 -21 28 -4 0 9 -7 16 -16 16 -9 0 -14 -5 -12
-12z"/>
<path d="M2780 3390 c0 -5 5 -10 11 -10 5 0 7 5 4 10 -3 6 -8 10 -11 10 -2 0
-4 -4 -4 -10z"/>
<path d="M1495 3380 c3 -5 8 -10 11 -10 2 0 4 5 4 10 0 6 -5 10 -11 10 -5 0
-7 -4 -4 -10z"/>
<path d="M2581 3381 c-11 -7 -9 -12 10 -22 13 -7 28 -12 33 -11 5 2 6 -4 3
-12 -4 -10 2 -20 15 -27 17 -9 18 -13 7 -20 -16 -10 -17 -9 35 -15 22 -2 46 2
54 9 13 10 15 9 9 -6 -16 -41 -18 -66 -9 -83 6 -11 11 -13 16 -5 4 6 2 11 -3
11 -14 0 -14 37 -1 45 11 7 14 58 3 68 -3 4 -14 0 -24 -9 -19 -17 -39 -12 -39
11 0 11 -22 27 -42 29 -4 1 -15 11 -23 24 -18 24 -23 26 -44 13z"/>
<path d="M1646 3365 c-3 -8 -2 -15 3 -15 5 0 14 7 21 15 10 12 10 15 -3 15 -8
0 -17 -7 -21 -15z"/>
<path d="M127 3349 c7 -7 15 -10 18 -7 3 3 -2 9 -12 12 -14 6 -15 5 -6 -5z"/>
<path d="M235 3350 c3 -5 8 -10 11 -10 2 0 4 5 4 10 0 6 -5 10 -11 10 -5 0 -7
-4 -4 -10z"/>
<path d="M92 3325 c7 -15 14 -22 16 -16 3 8 9 8 23 1 23 -13 25 -30 4 -30 -8
0 -15 -7 -15 -15 0 -8 6 -13 13 -11 6 1 9 1 5 -1 -5 -3 -8 -9 -8 -14 0 -14 38
-11 43 4 3 9 8 8 18 -4 17 -19 77 -44 86 -36 3 4 0 13 -7 22 -11 13 -10 14 4
9 28 -11 17 3 -20 25 -19 12 -41 21 -49 21 -8 0 -17 5 -21 12 -4 7 -3 8 4 4 8
-5 10 -2 6 8 -4 9 -15 14 -27 12 -12 -2 -37 5 -55 16 l-32 20 12 -27z"/>
<path d="M2454 3331 c0 -11 4 -17 8 -15 4 3 8 0 8 -7 0 -7 2 -10 5 -8 6 7 -6
49 -14 49 -4 0 -7 -9 -7 -19z"/>
<path d="M745 3330 c3 -5 11 -10 16 -10 6 0 7 5 4 10 -3 6 -11 10 -16 10 -6 0
-7 -4 -4 -10z"/>
<path d="M1545 3320 c3 -5 8 -10 11 -10 2 0 4 5 4 10 0 6 -5 10 -11 10 -5 0
-7 -4 -4 -10z"/>
<path d="M630 3290 c0 -19 3 -21 12 -12 9 9 9 15 0 24 -9 9 -12 7 -12 -12z"/>
<path d="M2170 3307 c0 -5 5 -17 10 -28 12 -22 -8 -27 -28 -7 -9 9 -15 9 -24
-1 -10 -11 -10 -13 0 -7 7 5 12 1 12 -10 0 -10 3 -14 7 -11 3 4 12 2 20 -5 7
-6 16 -8 20 -4 3 3 0 6 -8 6 -12 0 -12 2 0 9 9 6 22 6 32 0 11 -6 20 -5 24 1
3 6 -5 14 -19 19 -13 6 -29 18 -35 28 -6 10 -11 14 -11 10z"/>
<path d="M0 3278 c0 -14 4 -14 25 -5 32 15 32 25 0 23 -16 0 -25 -7 -25 -18z"/>
<path d="M1680 3290 c0 -7 24 -20 36 -20 13 0 1 19 -16 23 -11 3 -20 2 -20 -3z"/>
<path d="M2087 3289 c7 -7 15 -10 18 -7 3 3 -2 9 -12 12 -14 6 -15 5 -6 -5z"/>
<path d="M1277 3269 c7 -7 15 -10 18 -7 3 3 -2 9 -12 12 -14 6 -15 5 -6 -5z"/>
<path d="M2771 3268 c0 -7 4 -22 9 -33 7 -17 9 -15 9 13 1 17 -3 32 -9 32 -5
0 -10 -6 -9 -12z"/>
<path d="M895 3261 c-3 -5 -1 -12 5 -16 5 -3 10 1 10 9 0 18 -6 21 -15 7z"/>
<path d="M1115 3260 c-3 -5 1 -10 9 -10 9 0 16 5 16 10 0 6 -4 10 -9 10 -6 0
-13 -4 -16 -10z"/>
<path d="M1734 3261 c8 -12 46 -21 46 -11 0 8 -24 20 -41 20 -6 0 -8 -4 -5 -9z"/>
<path d="M1980 3250 c0 -11 2 -20 4 -20 2 0 6 9 9 20 3 11 1 20 -4 20 -5 0 -9
-9 -9 -20z"/>
<path d="M2290 3254 c0 -8 5 -12 10 -9 6 4 8 11 5 16 -9 14 -15 11 -15 -7z"/>
<path d="M1636 3245 c-2 -7 1 -18 8 -24 10 -9 15 -7 19 8 6 22 -19 37 -27 16z"/>
<path d="M1870 3245 c7 -8 17 -15 22 -15 6 0 5 7 -2 15 -7 8 -17 15 -22 15 -6
0 -5 -7 2 -15z"/>
<path d="M2060 3253 c0 -24 12 -42 26 -36 8 3 14 10 14 16 0 6 -3 7 -7 4 -3
-4 -12 1 -19 11 -7 9 -14 12 -14 5z"/>
<path d="M2460 3254 c0 -13 21 -44 30 -44 17 0 11 25 -10 38 -11 7 -20 10 -20
6z"/>
<path d="M75 3240 c-4 -6 5 -10 20 -10 15 0 24 4 20 10 -3 6 -12 10 -20 10 -8
0 -17 -4 -20 -10z"/>
<path d="M1921 3231 c-10 -6 -9 -10 3 -14 8 -3 18 -2 21 3 8 13 -9 20 -24 11z"/>
<path d="M340 3199 c0 -11 5 -17 10 -14 6 3 10 13 10 21 0 8 -4 14 -10 14 -5
0 -10 -9 -10 -21z"/>
<path d="M1350 3197 c14 -8 27 -12 30 -10 7 6 -23 23 -40 23 -8 0 -4 -6 10
-13z"/>
<path d="M1438 3203 c6 -2 18 -2 25 0 6 3 1 5 -13 5 -14 0 -19 -2 -12 -5z"/>
<path d="M1910 3200 c0 -5 5 -10 10 -10 6 0 10 5 10 10 0 6 -4 10 -10 10 -5 0
-10 -4 -10 -10z"/>
<path d="M1648 3193 c7 -3 16 -2 19 1 4 3 -2 6 -13 5 -11 0 -14 -3 -6 -6z"/>
<path d="M2210 3175 c33 -19 50 -18 26 0 -11 8 -27 15 -35 15 -10 -1 -7 -6 9
-15z"/>
<path d="M1862 3154 c1 -9 9 -19 16 -22 9 -3 13 2 10 14 -1 9 -9 19 -16 22 -9
3 -13 -2 -10 -14z"/>
<path d="M1614 3135 c22 -17 40 -20 32 -6 -3 5 -16 11 -28 14 -22 6 -22 5 -4
-8z"/>
<path d="M1795 3140 c-3 -5 1 -10 9 -10 9 0 16 5 16 10 0 6 -4 10 -9 10 -6 0
-13 -4 -16 -10z"/>
<path d="M0 3131 c0 -10 28 -41 36 -41 3 0 2 5 -1 10 -3 6 0 10 7 10 8 1 6 6
-6 15 -23 17 -36 19 -36 6z"/>
<path d="M710 3130 c0 -6 7 -10 15 -10 8 0 15 2 15 4 0 2 -7 6 -15 10 -8 3
-15 1 -15 -4z"/>
<path d="M803 3128 c-8 -9 -9 -19 -3 -28 8 -12 10 -9 11 10 1 25 1 24 14 -5 8
-16 14 -23 15 -14 0 8 -6 23 -13 33 -11 15 -15 16 -24 4z"/>
<path d="M1260 3130 c8 -5 20 -10 25 -10 6 0 3 5 -5 10 -8 5 -19 10 -25 10 -5
0 -3 -5 5 -10z"/>
<path d="M1750 3126 c0 -8 16 -24 35 -36 19 -12 35 -25 35 -29 0 -4 14 -15 31
-25 22 -13 34 -15 41 -8 8 8 17 8 31 1 15 -9 18 -8 15 3 -5 16 -48 24 -48 9 0
-17 -12 -13 -45 15 l-30 25 30 -5 30 -6 -27 12 c-16 7 -28 19 -28 27 0 13 -2
13 -9 2 -12 -18 -52 -5 -44 15 3 7 0 14 -6 14 -6 0 -11 -6 -11 -14z"/>
<path d="M1540 3123 c14 -3 29 -9 35 -14 5 -5 16 -9 25 -9 12 1 11 4 -4 15
-11 8 -34 14 -50 14 -28 -2 -28 -2 -6 -6z"/>
<path d="M585 3110 c3 -5 11 -10 16 -10 6 0 7 5 4 10 -3 6 -11 10 -16 10 -6 0
-7 -4 -4 -10z"/>
<path d="M676 3065 c4 -8 9 -15 13 -15 4 0 8 7 8 15 0 8 -6 15 -13 15 -8 0
-11 -6 -8 -15z"/>
<path d="M1610 3070 c20 -13 33 -13 25 0 -3 6 -14 10 -23 10 -15 0 -15 -2 -2
-10z"/>
<path d="M2112 3013 c-4 -10 -7 -24 -6 -30 1 -7 2 -17 3 -23 0 -5 5 -10 10
-10 5 0 7 9 4 20 -3 11 0 26 6 34 8 9 8 16 2 20 -6 4 -14 -1 -19 -11z"/>
<path d="M1670 2995 c0 -8 5 -15 10 -15 6 0 10 7 10 15 0 8 -4 15 -10 15 -5 0
-10 -7 -10 -15z"/>
<path d="M2028 2983 c7 -3 16 -2 19 1 4 3 -2 6 -13 5 -11 0 -14 -3 -6 -6z"/>
<path d="M2070 2980 c0 -5 -17 -10 -37 -10 -28 0 -34 -3 -23 -10 13 -8 12 -10
-4 -10 -11 0 -17 -3 -14 -6 10 -10 88 19 88 33 0 7 -2 13 -5 13 -3 0 -5 -4 -5
-10z"/>
<path d="M2172 2986 c3 -4 12 -8 20 -10 7 -1 19 -5 26 -10 13 -8 30 -1 20 9
-8 8 -74 19 -66 11z"/>
<path d="M1896 2958 c3 -4 9 -8 15 -8 5 0 9 4 9 8 0 5 -7 9 -15 9 -8 0 -12 -4
-9 -9z"/>
<path d="M935 2950 c-3 -5 -1 -10 4 -10 6 0 11 5 11 10 0 6 -2 10 -4 10 -3 0
-8 -4 -11 -10z"/>
<path d="M1586 2935 c-4 -10 1 -15 16 -15 17 0 18 2 8 15 -7 8 -14 15 -15 15
-2 0 -5 -7 -9 -15z"/>
<path d="M620 2922 c0 -10 33 -42 44 -42 9 0 -27 49 -36 50 -5 0 -8 -4 -8 -8z"/>
<path d="M220 2910 c0 -5 5 -10 11 -10 5 0 7 5 4 10 -3 6 -8 10 -11 10 -2 0
-4 -4 -4 -10z"/>
<path d="M1630 2901 c0 -6 4 -13 10 -16 6 -3 7 1 4 9 -7 18 -14 21 -14 7z"/>
<path d="M506 2885 c-11 -8 -16 -15 -12 -15 5 0 3 -6 -3 -14 -13 -16 0 -29 31
-31 14 -1 17 4 13 22 -3 21 -2 23 11 12 9 -7 13 -21 11 -31 -5 -19 1 -22 27
-12 9 3 13 10 10 15 -3 5 4 9 16 9 12 0 18 5 15 10 -4 6 -11 8 -16 5 -5 -4 -9
-2 -9 3 0 8 -60 43 -72 42 -1 0 -12 -7 -22 -15z"/>
<path d="M1413 2884 c-50 -12 -62 -19 -65 -37 -3 -21 -52 -57 -63 -46 -9 10 6
39 20 39 7 0 15 -5 17 -12 3 -8 7 -6 11 5 5 14 -2 16 -53 15 -36 -1 -57 -5
-53 -11 4 -6 -2 -8 -15 -5 -14 4 -19 2 -16 -6 5 -13 -30 -16 -41 -4 -8 7 -78
-11 -85 -22 -3 -5 -43 -4 -89 2 -74 10 -85 9 -96 -6 -14 -18 -35 -21 -35 -5 0
7 -8 18 -17 25 -20 15 -47 19 -39 5 7 -11 -94 -20 -109 -11 -15 10 -75 -9 -82
-25 -3 -8 -9 -12 -14 -9 -5 3 -9 0 -9 -5 0 -6 10 -10 22 -8 32 3 36 -32 7 -54
l-24 -18 24 -25 24 -26 -24 0 c-21 -1 -85 -29 -67 -30 4 0 0 -12 -7 -27 -13
-24 -13 -29 0 -36 29 -16 16 -29 -22 -22 -26 4 -44 1 -58 -9 -19 -15 -19 -15
5 -10 15 4 20 2 13 -3 -14 -10 -6 -25 22 -41 19 -11 19 -11 -2 -9 -13 1 -23 4
-23 7 0 4 -14 5 -31 2 -21 -3 -29 -9 -27 -21 3 -11 14 -16 41 -15 20 1 34 -3
31 -7 -8 -13 10 -11 23 2 7 7 50 13 100 14 48 1 95 5 104 9 8 4 21 22 27 40
17 45 40 65 53 45 16 -26 10 -48 -16 -55 -33 -8 -53 -33 -36 -44 19 -11 -1
-20 -32 -14 -20 3 -27 0 -27 -11 0 -9 -4 -13 -10 -10 -5 3 -10 0 -11 -7 0 -7
-4 -3 -9 10 -10 24 -35 28 -87 13 -19 -6 -35 -5 -41 1 -6 6 -11 4 -15 -6 -5
-12 -1 -15 16 -12 12 2 33 -1 46 -6 15 -5 28 -4 37 3 22 18 29 2 13 -28 -7
-16 -15 -31 -17 -35 -2 -4 13 -4 32 -1 45 7 47 -8 4 -28 -38 -17 -68 -14 -68
7 0 9 -10 14 -27 14 -20 0 -24 3 -14 9 22 14 -40 18 -79 4 l-35 -12 38 0 c46
-1 47 -12 5 -29 -18 -7 -41 -17 -50 -22 -9 -5 -19 -6 -22 -2 -3 5 -23 7 -45 6
-23 -1 -41 2 -41 8 0 5 -8 8 -17 7 -10 -1 -40 -1 -67 0 -46 1 -48 2 -30 16 10
8 14 15 7 15 -20 0 -123 -42 -123 -51 0 -5 12 -4 26 2 36 13 44 3 10 -12 -22
-10 -33 -9 -64 6 l-37 19 46 6 c27 3 64 18 87 33 22 16 50 29 63 31 13 1 32 6
43 11 17 8 17 9 -5 27 -17 14 -19 18 -7 14 21 -6 48 2 48 15 0 5 -13 6 -28 3
-23 -5 -30 -1 -40 21 -12 26 -13 26 -37 11 -35 -23 -42 -20 -16 8 13 13 18 27
13 30 -19 11 -67 2 -80 -17 -9 -11 -21 -16 -33 -12 -14 5 -19 2 -19 -13 0 -11
-9 -22 -20 -25 -14 -3 -20 -14 -20 -31 0 -24 3 -26 28 -20 32 8 72 31 89 53 8
10 12 12 13 4 0 -7 -11 -20 -25 -29 -38 -25 -33 -45 7 -33 42 12 43 12 28 -6
-7 -9 -20 -13 -29 -10 -9 3 -37 -5 -61 -17 l-45 -23 -3 -277 c-1 -183 1 -278
8 -278 5 0 10 4 10 8 0 5 7 9 16 9 15 0 15 -1 0 -12 -22 -16 -9 -27 15 -12 16
10 21 9 29 -3 7 -11 10 -11 10 -2 0 7 5 10 10 7 8 -5 7 -12 -2 -23 -9 -11 -10
-14 -1 -8 7 4 22 2 34 -5 19 -10 21 -9 16 5 -6 14 -3 16 16 9 12 -4 36 -8 54
-8 17 0 35 -4 39 -8 13 -13 47 -7 60 11 8 11 13 12 14 4 0 -9 7 -8 25 4 15 10
25 12 25 5 0 -6 -7 -11 -15 -11 -33 0 -12 -18 28 -24 23 -4 60 -13 82 -21 28
-9 60 -11 100 -6 39 4 68 3 83 -5 17 -8 20 -13 10 -17 -10 -4 -9 -9 6 -21 14
-11 21 -12 31 -3 11 10 10 13 -1 15 -8 2 -12 8 -9 13 8 12 52 12 60 -1 3 -5
-1 -10 -9 -10 -9 0 -16 -4 -16 -9 0 -6 12 -6 29 -1 24 7 29 5 24 -6 -4 -11 7
-14 52 -14 31 0 54 -4 51 -8 -9 -15 38 -11 55 4 11 9 26 13 42 9 14 -4 28 -2
31 4 4 6 14 11 22 11 8 0 13 -4 10 -9 -3 -5 1 -14 8 -20 10 -8 16 -9 21 -1 3
6 10 8 14 6 4 -3 36 -1 72 4 35 5 90 12 123 15 32 4 70 11 84 16 13 5 40 7 59
3 44 -8 108 34 129 85 19 49 110 114 172 124 26 4 55 8 64 9 25 3 11 18 -17
18 -26 0 -42 17 -29 30 5 5 23 11 39 15 29 6 29 6 11 -9 -11 -9 -15 -16 -10
-16 6 0 15 5 21 11 9 9 18 8 37 -5 15 -9 26 -13 26 -8 0 4 12 9 27 10 33 3 44
12 14 12 -13 0 -19 4 -16 10 4 6 -7 15 -24 21 -32 11 -42 29 -17 29 7 0 19 6
25 14 21 25 -11 26 -44 1 -17 -12 -54 -33 -83 -45 -37 -16 -57 -32 -67 -54
-16 -33 -57 -58 -81 -49 -11 4 -12 9 -3 19 6 8 15 12 19 9 4 -3 13 2 20 10 11
14 10 14 -12 6 -14 -5 -29 -7 -34 -3 -4 4 -4 1 0 -5 4 -8 1 -13 -8 -13 -9 0
-16 -9 -16 -21 0 -11 -4 -18 -9 -15 -17 11 -43 -6 -38 -25 3 -11 1 -22 -4 -25
-5 -3 -9 -1 -9 5 0 6 -7 8 -15 5 -8 -4 -15 -12 -15 -18 0 -7 -15 -17 -33 -24
-35 -13 -95 -17 -84 -6 3 4 -2 18 -13 32 -11 13 -18 28 -15 32 7 12 -20 19
-35 10 -17 -11 -72 -1 -82 14 -6 8 -11 6 -18 -4 -9 -13 -11 -13 -20 0 -13 20
-13 25 5 40 8 7 15 19 15 27 0 12 3 13 13 4 17 -13 28 -5 20 15 -3 8 3 24 13
35 14 15 15 22 5 32 -10 9 -11 8 -5 -6 4 -13 2 -16 -9 -11 -17 6 -31 49 -22
64 4 6 1 10 -5 10 -6 0 -18 7 -26 15 -12 11 -13 19 -4 36 6 11 9 27 6 34 -3 8
-1 17 3 20 5 3 7 14 4 26 -4 14 -12 19 -24 16 -25 -7 -48 20 -25 29 9 3 15 11
14 18 -4 23 13 54 35 60 13 4 18 9 11 13 -6 5 -13 15 -16 24 -7 17 25 29 78
29 15 0 24 6 24 15 0 19 16 20 23 1 7 -17 43 -14 39 3 -1 6 2 11 8 11 16 0 12
21 -7 43 -18 19 -17 19 5 6 12 -8 22 -19 22 -26 0 -17 17 -17 23 0 4 10 6 10
6 0 1 -18 21 -16 21 2 0 8 -4 15 -10 15 -5 0 -10 7 -10 15 0 9 -6 12 -17 9
-14 -5 -15 -4 -4 4 10 7 21 6 35 -3 29 -19 61 3 51 35 -6 19 -4 21 17 15 12
-4 25 -12 26 -16 7 -17 22 -9 22 12 0 15 -4 19 -19 14 -11 -3 -22 -2 -25 3 -3
5 9 7 27 6 53 -5 107 6 107 22 0 8 10 14 26 14 14 0 32 7 41 15 19 19 9 33
-11 16 -11 -10 -23 -8 -56 9 -23 12 -40 23 -38 26 3 2 22 -5 44 -15 43 -22 72
-11 38 13 -29 22 -8 31 23 10 15 -10 31 -18 35 -16 4 1 5 -5 2 -13 -4 -8 -1
-15 5 -15 6 0 11 8 11 19 0 11 9 21 21 24 13 4 18 10 13 18 -4 7 0 17 10 24
15 11 14 13 -9 19 -14 4 -25 12 -25 20 0 13 -38 53 -46 49 -12 -8 -22 -1 -27
17 -3 13 0 20 10 20 8 0 11 -4 8 -10 -4 -6 9 -10 31 -10 30 0 34 -2 25 -14 -9
-11 -7 -15 10 -19 24 -6 71 12 63 24 -8 13 1 11 41 -8 24 -11 31 -19 23 -24
-10 -7 -10 -11 -1 -20 21 -21 53 -21 54 -1 0 14 2 14 9 -3 5 -11 9 -15 9 -8 2
27 -13 43 -46 49 -19 4 -37 13 -40 20 -3 8 -9 12 -13 9 -14 -9 -81 25 -74 37
4 6 3 8 -3 5 -6 -4 -13 0 -17 8 -4 12 -11 13 -33 5 -26 -9 -27 -9 -9 5 19 14
17 15 -26 15 -25 0 -62 -7 -82 -15 -40 -17 -51 -14 -79 22 -21 27 -45 28 -134
7z m-279 -81 c-5 -5 -12 -12 -16 -18 -4 -6 -8 -2 -8 8 0 9 7 17 17 17 9 0 12
-3 7 -7z m486 -8 c-7 -8 -18 -15 -24 -15 -6 0 -2 7 8 15 25 19 32 19 16 0z
m195 -5 c3 -5 -1 -10 -9 -10 -8 0 -18 5 -21 10 -3 6 1 10 9 10 8 0 18 -4 21
-10z m-1045 -4 c0 -2 -7 -6 -15 -10 -8 -3 -15 -1 -15 4 0 6 7 10 15 10 8 0 15
-2 15 -4z m275 -6 c3 -5 -1 -10 -9 -10 -9 0 -16 5 -16 10 0 6 4 10 9 10 6 0
13 -4 16 -10z m145 6 c0 -2 -9 -6 -20 -9 -11 -3 -20 -1 -20 4 0 5 9 9 20 9 11
0 20 -2 20 -4z m-355 -24 c-3 -4 -22 -7 -41 -8 -36 -1 -35 11 1 18 23 5 49 -2
40 -10z m293 -23 c12 -5 32 -13 45 -18 12 -5 36 -14 52 -19 21 -6 -5 -8 -85
-5 -63 2 -121 6 -128 8 -7 3 -22 -5 -33 -16 -16 -16 -23 -18 -34 -9 -11 9 -12
15 -2 25 9 9 14 10 19 1 5 -7 8 -7 8 0 0 5 -5 15 -12 22 -9 9 -7 12 13 13 19
1 16 3 -11 9 -21 5 1 6 55 3 50 -2 100 -9 113 -14z m32 11 c0 -5 -7 -10 -16
-10 -8 0 -12 5 -9 10 3 6 10 10 16 10 5 0 9 -4 9 -10z m118 -8 c6 -18 -15 -14
-22 4 -4 10 -1 14 6 12 6 -2 14 -10 16 -16z m430 -18 c-3 -14 -5 -12 -10 9 -3
19 -2 25 4 19 6 -6 8 -18 6 -28z m-798 16 c0 -5 -9 -10 -19 -10 -11 0 -23 5
-26 10 -4 6 5 10 19 10 14 0 26 -4 26 -10z m830 -30 c-18 -11 -24 -6 -16 16 5
14 9 15 19 5 9 -9 9 -14 -3 -21z m-895 10 c20 -9 7 -15 -22 -11 -7 1 -10 -5
-7 -13 3 -8 0 -17 -7 -22 -9 -5 -10 -2 -6 9 3 9 2 19 -4 22 -12 8 -2 25 14 24
7 0 21 -4 32 -9z m564 -23 c8 -10 7 -14 -4 -14 -8 0 -15 6 -15 14 0 7 2 13 4
13 2 0 9 -6 15 -13z m-494 -17 c-3 -5 -12 -7 -20 -3 -21 7 -19 13 6 13 11 0
18 -4 14 -10z m259 -85 c-16 -6 -35 -10 -42 -7 -8 3 -10 -2 -6 -14 6 -17 5
-17 -10 1 -10 11 -14 13 -10 5 6 -12 4 -13 -6 -3 -12 11 -11 15 6 28 10 8 29
13 42 10 16 -4 21 -2 17 6 -5 8 0 7 16 -1 l22 -13 -29 -12z m131 15 c3 -5 1
-10 -4 -10 -6 0 -11 5 -11 10 0 6 2 10 4 10 3 0 8 -4 11 -10z m69 -5 c3 -8 -5
-12 -23 -11 -15 0 -28 5 -28 11 0 15 45 15 51 0z m-716 -7 c7 -7 12 -19 12
-27 -1 -14 -3 -13 -14 2 -7 9 -19 17 -25 17 -7 0 -9 5 -6 10 8 13 18 13 33 -2z
m776 3 c4 -5 -3 -7 -14 -4 -23 6 -26 13 -6 13 8 0 17 -4 20 -9z m-464 -20 c0
-5 -7 -12 -16 -15 -24 -9 -28 -7 -14 9 14 17 30 20 30 6z m443 -21 c14 0 18
-3 11 -10 -15 -15 -44 -2 -43 19 0 10 2 11 6 4 2 -7 14 -13 26 -13z m-443 -10
c0 -5 -4 -10 -10 -10 -5 0 -10 5 -10 10 0 6 5 10 10 10 6 0 10 -4 10 -10z
m392 -5 c18 -7 33 -35 18 -35 -5 0 -12 5 -16 11 -4 8 -9 7 -16 -2 -8 -11 -9
-10 -4 4 4 13 0 17 -17 17 -18 0 -19 -2 -7 -10 13 -9 13 -10 0 -10 -8 0 -26 9
-40 20 l-25 19 45 -4 c25 -1 53 -6 62 -10z m86 -27 c7 -7 12 -17 12 -22 0 -6
-5 -3 -11 7 -5 9 -15 17 -20 17 -6 0 -7 -4 -4 -10 3 -5 1 -10 -4 -10 -12 0
-14 13 -4 23 9 10 17 9 31 -5z m-388 -12 c0 -16 -14 -36 -25 -36 -7 0 -15 -7
-19 -15 -3 -8 -13 -15 -21 -15 -9 0 -14 -3 -11 -8 2 -4 -2 -15 -9 -25 -19 -27
-60 -12 -85 30 -11 20 -18 38 -15 41 7 8 55 -39 50 -49 -12 -18 43 7 71 33 17
15 34 25 38 21 4 -5 7 -3 6 2 -4 17 0 25 10 25 6 0 10 -2 10 -4z m56 -11 c-22
-17 -36 -19 -36 -7 0 14 12 22 34 22 21 -1 21 -1 2 -15z m146 -39 c-2 -10 1
-15 7 -12 5 4 12 2 15 -3 4 -5 0 -8 -6 -7 -19 3 -58 30 -58 39 0 5 10 7 23 5
15 -2 21 -9 19 -22z m-187 -17 c0 -9 -14 -15 -40 -16 l-40 -3 30 20 c33 22 50
21 50 -1z m-865 -7 c0 -5 -7 -9 -15 -9 -8 0 -12 4 -9 9 3 4 9 8 15 8 5 0 9 -4
9 -8z m6 -39 c20 -26 17 -30 -16 -25 -39 6 -40 33 -1 41 2 1 10 -7 17 -16z
m572 -8 c-6 -14 -13 -23 -15 -21 -5 5 15 46 22 46 3 0 -1 -11 -7 -25z m222
-29 c-26 -13 -44 -11 -35 5 4 5 18 9 33 9 l27 0 -25 -14z m111 -12 c7 -4 7
-10 1 -16 -7 -7 -18 -3 -33 11 l-22 20 21 -4 c12 -2 27 -7 33 -11z m-346 -4
c3 -5 1 -10 -4 -10 -6 0 -11 5 -11 10 0 6 2 10 4 10 3 0 8 -4 11 -10z m-665
-10 c0 -5 -12 -10 -26 -10 -14 0 -23 4 -19 10 3 6 15 10 26 10 10 0 19 -4 19
-10z m776 -1 c-13 -8 -15 -13 -6 -19 7 -4 8 -10 3 -13 -5 -3 -15 -2 -23 3 -13
8 -12 12 5 24 11 9 25 15 30 15 6 0 2 -4 -9 -10z m-75 -62 c-1 -12 -15 -9 -19
4 -3 6 1 10 8 8 6 -3 11 -8 11 -12z m41 -4 c-6 -3 -9 -9 -6 -15 8 -12 -14 -55
-31 -62 -22 -8 -10 42 15 69 13 14 26 22 29 19 3 -4 0 -9 -7 -11z m-560 -4
c19 -12 -35 -29 -91 -29 -57 0 -70 9 -39 27 24 13 109 15 130 2z m351 4 c15
-9 -14 -32 -34 -28 -28 6 -69 -12 -69 -29 0 -18 -12 -16 -73 13 -27 12 -54 20
-60 17 -7 -2 -5 -5 4 -5 9 -1 24 -11 35 -22 19 -22 19 -22 -5 -9 -17 8 -54 11
-125 7 -58 -3 -84 -2 -61 3 22 4 53 12 69 19 16 6 38 9 50 6 11 -2 15 -2 7 1
-10 5 -6 10 15 19 27 11 229 18 247 8z m155 -35 c-2 -6 -10 -13 -16 -14 -7 -1
-8 0 -2 3 5 2 8 9 4 14 -3 5 0 9 6 9 7 0 10 -5 8 -12z m-598 -23 c0 -9 -44
-23 -54 -18 -4 3 -2 9 5 14 15 10 49 12 49 4z m499 -17 c7 -18 5 -25 -10 -32
-25 -12 -28 -7 -22 27 6 33 21 35 32 5z m-49 2 c0 -5 -8 -10 -18 -10 -10 0
-23 -5 -30 -12 -7 -7 -12 -8 -12 -2 0 6 10 16 23 22 29 14 37 14 37 2z m-380
-10 c12 -8 11 -10 -5 -10 -12 0 -26 -5 -32 -11 -6 -6 -22 -7 -38 -3 -26 7 -27
8 -10 20 22 16 63 18 85 4z m105 -8 c-3 -3 -11 0 -18 7 -9 10 -8 11 6 5 10 -3
15 -9 12 -12z m91 -4 c-9 -5 -25 -6 -36 -3 -33 11 -22 21 16 17 29 -4 34 -6
20 -14z m-164 -16 c-7 -2 -10 -8 -6 -13 3 -5 -9 -9 -25 -9 -17 0 -31 4 -31 8
0 11 53 30 65 23 5 -2 4 -6 -3 -9z m78 -2 c0 -13 -11 -13 -30 0 -12 8 -11 10
8 10 12 0 22 -4 22 -10z m420 0 c0 -5 -5 -10 -11 -10 -5 0 -7 5 -4 10 3 6 8
10 11 10 2 0 4 -4 4 -10z m-385 -18 c-3 -3 -11 0 -18 7 -9 10 -8 11 6 5 10 -3
15 -9 12 -12z m205 -2 c0 -5 -2 -10 -4 -10 -3 0 -8 5 -11 10 -3 6 -1 10 4 10
6 0 11 -4 11 -10z m240 0 c0 -5 -7 -10 -16 -10 -8 0 -12 5 -9 10 3 6 10 10 16
10 5 0 9 -4 9 -10z m-390 -8 c0 -7 -57 -32 -74 -32 -18 0 8 21 37 29 18 5 33
10 35 10 1 1 2 -3 2 -7z m100 -47 c0 -3 -11 -5 -25 -5 -17 0 -23 4 -19 15 5
11 11 12 25 4 10 -5 19 -12 19 -14z m240 -16 c0 -5 -7 -9 -16 -9 -8 0 -13 -4
-9 -9 3 -6 -4 -9 -15 -8 -26 2 -25 11 3 30 22 15 37 14 37 -4z m-333 -5 c30
-9 53 -18 50 -20 -8 -8 -97 9 -114 22 -25 18 -4 18 64 -2z m138 -4 c-22 -25
-55 -33 -55 -13 0 10 6 14 19 10 12 -3 18 0 15 7 -2 6 5 12 17 13 20 2 20 1 4
-17z m465 -25 c7 -9 8 -15 2 -15 -5 0 -12 7 -16 15 -3 8 -4 15 -2 15 2 0 9 -7
16 -15z m78 -5 c-7 -10 -14 -17 -17 -15 -4 4 18 35 25 35 2 0 -1 -9 -8 -20z
m42 10 c0 -5 -5 -10 -11 -10 -5 0 -7 5 -4 10 3 6 8 10 11 10 2 0 4 -4 4 -10z
m-322 -9 c2 -1 0 -6 -4 -12 -4 -7 -10 -7 -16 -1 -6 6 -18 8 -27 5 -13 -4 -13
-3 -2 5 11 8 24 9 49 3z m50 -26 c-3 -3 -9 2 -12 12 -6 14 -5 15 5 6 7 -7 10
-15 7 -18z m-403 4 c11 -17 -1 -21 -15 -4 -8 9 -8 15 -2 15 6 0 14 -5 17 -11z
m93 0 c9 0 2 -7 -16 -15 -23 -10 -38 -11 -50 -5 -16 10 -16 10 1 11 9 0 17 5
17 11 0 6 7 8 16 5 9 -3 23 -6 32 -7z m120 -22 c-7 -8 -22 -12 -33 -9 -18 5
-18 6 5 13 38 11 42 10 28 -4z m105 -23 c12 -1 29 -3 37 -4 24 -2 -20 -18 -52
-19 -22 -1 -28 4 -29 22 0 12 -3 16 -6 10 -2 -7 -9 -13 -15 -13 -7 0 -7 5 1
13 6 8 7 18 3 23 -4 5 3 0 16 -10 12 -11 32 -20 45 -22z m325 15 c-2 -6 -8
-10 -13 -10 -5 0 -11 4 -13 10 -2 6 4 11 13 11 9 0 15 -5 13 -11z m637 -9 c3
-5 1 -10 -4 -10 -6 0 -11 5 -11 10 0 6 2 10 4 10 3 0 8 -4 11 -10z m-61 -69
c3 -5 0 -11 -8 -14 -15 -6 -26 1 -26 15 0 11 27 10 34 -1z m-424 -101 c-19
-13 -30 -13 -30 0 0 6 10 10 23 10 18 0 19 -2 7 -10z m20 -26 c0 -11 -5 -14
-16 -10 -9 3 -21 6 -27 7 -7 0 -3 4 8 9 29 13 35 12 35 -6z m-190 -8 c0 -3 -4
-8 -10 -11 -5 -3 -10 -1 -10 4 0 6 5 11 10 11 6 0 10 -2 10 -4z"/>
<path d="M491 2250 c-19 -4 -21 -7 -10 -16 14 -11 59 -17 59 -8 0 16 -28 29
-49 24z"/>
<path d="M1940 2893 c1 -20 20 -37 29 -28 7 7 4 14 -9 23 -11 7 -20 9 -20 5z"/>
<path d="M1045 2870 c3 -5 8 -10 11 -10 2 0 4 5 4 10 0 6 -5 10 -11 10 -5 0
-7 -4 -4 -10z"/>
<path d="M1290 2870 c0 -13 11 -13 30 0 12 8 11 10 -7 10 -13 0 -23 -4 -23
-10z"/>
<path d="M650 2855 c0 -8 7 -15 15 -15 8 0 15 7 15 15 0 8 -7 15 -15 15 -8 0
-15 -7 -15 -15z"/>
<path d="M710 2859 c0 -5 5 -7 10 -4 6 3 10 8 10 11 0 2 -4 4 -10 4 -5 0 -10
-5 -10 -11z"/>
<path d="M1076 2862 c-9 -14 10 -33 27 -26 14 5 14 8 2 20 -16 16 -22 17 -29
6z"/>
<path d="M820 2850 c0 -5 5 -10 11 -10 5 0 7 5 4 10 -3 6 -8 10 -11 10 -2 0
-4 -4 -4 -10z"/>
<path d="M936 2851 c-3 -5 4 -11 16 -14 29 -8 32 -4 8 11 -10 6 -21 8 -24 3z"/>
<path d="M1995 2829 c-14 -17 -25 -34 -25 -39 0 -5 -8 -10 -17 -12 -10 -2 4
-5 31 -5 26 -1 52 -5 57 -10 4 -4 29 -7 54 -5 37 3 45 7 45 24 0 14 -5 18 -15
14 -46 -19 -51 -19 -31 -4 10 8 17 20 15 27 -3 8 -11 5 -26 -8 l-22 -21 2 26
c1 19 -4 29 -20 35 -18 6 -27 2 -48 -22z"/>
<path d="M455 2820 c10 -11 19 -20 21 -20 1 0 0 9 -3 20 -3 11 -12 20 -21 20
-13 0 -12 -3 3 -20z"/>
<path d="M2160 2801 c0 -5 -3 -16 -6 -25 -3 -9 -1 -16 5 -16 6 0 11 10 11 23
1 20 2 21 14 5 7 -10 17 -18 21 -18 5 0 0 9 -10 20 -19 21 -35 26 -35 11z"/>
<path d="M2300 2806 c0 -2 7 -7 16 -10 8 -3 12 -2 9 4 -6 10 -25 14 -25 6z"/>
<path d="M2357 2797 c-4 -10 2 -23 16 -33 15 -11 17 -15 5 -11 -12 4 -18 1
-18 -9 0 -8 4 -13 9 -10 5 4 12 0 15 -6 5 -10 7 -10 12 0 8 17 24 15 24 -3 0
-18 12 -19 27 -4 15 15 -14 89 -33 82 -8 -3 -14 -12 -14 -20 0 -11 -5 -9 -18
7 -16 20 -20 21 -25 7z"/>
<path d="M2231 2785 c0 -5 4 -17 9 -25 7 -11 10 -11 10 -2 0 7 5 10 10 7 6 -3
10 1 10 11 0 13 -3 14 -14 5 -11 -9 -15 -9 -19 1 -3 7 -6 9 -6 3z"/>
<path d="M2280 2786 c0 -2 7 -7 16 -10 8 -3 12 -2 9 4 -6 10 -25 14 -25 6z"/>
<path d="M2334 2756 c5 -13 2 -17 -9 -13 -8 4 -17 2 -20 -4 -4 -5 7 -14 23
-20 17 -6 33 -17 36 -25 3 -9 11 -12 17 -8 9 5 8 10 -3 18 -8 6 -23 25 -32 41
-10 17 -15 22 -12 11z"/>
<path d="M500 2745 c0 -9 -4 -14 -9 -10 -5 3 -12 1 -15 -4 -3 -5 2 -12 11 -15
15 -6 15 -8 3 -16 -20 -13 -64 -12 -77 1 -6 6 -13 7 -17 1 -3 -5 9 -17 28 -27
27 -15 32 -22 28 -44 l-5 -26 24 21 c13 12 38 29 56 38 21 11 30 21 27 31 -4
8 -11 15 -16 15 -6 0 0 9 13 21 23 20 23 20 3 16 -12 -2 -29 0 -38 5 -12 7
-16 5 -16 -7z"/>
<path d="M1990 2745 c0 -8 4 -15 10 -15 5 0 7 7 4 15 -4 8 -8 15 -10 15 -2 0
-4 -7 -4 -15z"/>
<path d="M1800 2740 c-12 -8 -11 -10 6 -10 12 0 24 -7 28 -15 3 -8 13 -15 23
-15 15 0 16 -2 3 -10 -10 -7 -11 -10 -2 -10 24 0 26 32 3 52 -26 20 -39 22
-61 8z"/>
<path d="M2270 2740 c0 -5 5 -10 11 -10 5 0 7 5 4 10 -3 6 -8 10 -11 10 -2 0
-4 -4 -4 -10z"/>
<path d="M366 2728 c-21 -8 -25 -13 -15 -19 19 -12 32 -11 24 1 -3 5 9 14 27
19 19 5 24 9 13 9 -11 0 -33 -4 -49 -10z"/>
<path d="M2030 2726 c0 -2 7 -7 16 -10 8 -3 12 -2 9 4 -6 10 -25 14 -25 6z"/>
<path d="M2280 2706 c0 -2 8 -10 18 -17 15 -13 16 -12 3 4 -13 16 -21 21 -21
13z"/>
<path d="M2060 2679 c-9 -16 -18 -19 -36 -15 -28 7 -32 -8 -6 -23 14 -9 14
-10 2 -11 -9 0 -22 6 -30 13 -12 10 -12 9 -3 -3 5 -8 9 -25 8 -37 -1 -21 21
-40 33 -28 3 3 0 5 -7 5 -7 0 -9 5 -6 11 4 6 14 8 22 5 8 -3 11 -1 8 4 -3 6 3
10 14 10 12 0 21 7 21 15 0 8 6 15 13 15 9 0 8 3 -2 9 -11 7 -11 9 0 14 11 4
11 6 1 6 -7 1 -11 5 -7 10 3 5 1 12 -4 16 -6 3 -15 -4 -21 -16z"/>
<path d="M1810 2680 c-9 -6 -10 -10 -3 -10 6 0 15 5 18 10 8 12 4 12 -15 0z"/>
<path d="M2104 2674 c3 -8 6 -18 6 -20 0 -3 9 0 21 6 23 13 19 22 -12 27 -16
2 -20 -1 -15 -13z"/>
<path d="M1907 2652 c3 -7 17 -18 30 -23 15 -5 23 -15 21 -26 -3 -14 52 -83
67 -83 3 0 5 9 5 20 0 12 -5 17 -14 14 -18 -7 -46 33 -46 66 0 20 -7 27 -34
36 -28 9 -33 8 -29 -4z"/>
<path d="M173 2626 c23 -24 33 -29 35 -19 4 18 -31 53 -52 53 -10 0 -5 -11 17
-34z"/>
<path d="M82 2618 c5 -15 28 -18 29 -3 0 6 -7 12 -17 13 -10 3 -15 -1 -12 -10z"/>
<path d="M375 2615 c-5 -2 -23 -6 -38 -9 -15 -4 -25 -11 -22 -16 4 -6 -7 -10
-23 -10 -25 0 -62 -25 -62 -42 0 -8 53 3 68 15 7 5 15 7 19 4 3 -4 13 -1 21 6
13 9 14 9 8 0 -5 -9 -1 -13 13 -13 10 0 22 6 25 13 5 10 7 10 12 0 5 -13 44
-19 44 -8 0 4 -7 19 -15 35 -14 28 -25 33 -50 25z"/>
<path d="M70 2527 c-24 -29 -35 -45 -25 -35 11 9 39 24 63 33 45 18 49 24 30
43 -17 17 -18 16 -68 -41z"/>
<path d="M200 2519 c0 -5 5 -7 10 -4 6 3 10 8 10 11 0 2 -4 4 -10 4 -5 0 -10
-5 -10 -11z"/>
<path d="M1585 2490 c3 -5 8 -10 11 -10 2 0 4 5 4 10 0 6 -5 10 -11 10 -5 0
-7 -4 -4 -10z"/>
<path d="M1727 2459 c7 -7 15 -10 18 -7 3 3 -2 9 -12 12 -14 6 -15 5 -6 -5z"/>
<path d="M1810 2372 c-18 -15 -21 -22 -13 -37 7 -12 13 -14 17 -6 4 6 1 11 -6
11 -7 0 -2 9 12 20 14 10 22 21 19 25 -3 3 -16 -3 -29 -13z"/>
<path d="M229 2340 c-18 -14 -20 -19 -9 -20 9 0 21 5 27 11 7 7 20 8 30 5 17
-7 17 -8 1 -20 -10 -7 -18 -17 -18 -21 0 -4 7 -1 16 6 9 7 30 12 46 10 43 -4
32 18 -17 35 -51 17 -48 18 -76 -6z"/>
<path d="M1255 2351 c-3 -6 -1 -19 5 -28 10 -16 11 -16 6 2 -6 20 -6 20 9 1
12 -16 15 -17 15 -4 0 21 -26 42 -35 29z"/>
<path d="M1218 2325 c4 -25 16 -32 27 -16 3 5 -2 17 -11 25 -21 21 -22 20 -16
-9z"/>
<path d="M1200 2215 c0 -8 7 -15 15 -15 8 0 15 4 15 9 0 5 -7 11 -15 15 -9 3
-15 0 -15 -9z"/>
<path d="M3000 2150 c0 -6 14 -32 31 -57 23 -33 34 -42 43 -33 8 8 7 13 -2 19
-8 5 -12 10 -10 12 4 6 -33 53 -49 63 -8 4 -13 2 -13 -4z"/>
<path d="M3050 2132 c0 -4 8 -15 18 -23 15 -13 20 -13 30 -3 16 18 15 25 -3
18 -8 -4 -15 -1 -15 5 0 6 -7 11 -15 11 -8 0 -15 -3 -15 -8z"/>
<path d="M1667 2072 c-19 -21 -23 -72 -6 -72 6 0 9 -7 5 -15 -3 -8 -1 -25 4
-37 5 -13 9 -21 10 -18 5 17 11 49 14 70 2 14 7 33 11 43 4 9 3 17 -3 17 -5 0
-13 -11 -16 -25 -4 -14 -11 -23 -15 -20 -5 3 -4 18 2 34 6 17 15 27 21 24 5
-3 6 -1 2 5 -9 15 -10 15 -29 -6z"/>
<path d="M1236 2070 c-19 -6 -19 -7 2 -12 12 -4 24 -2 27 2 8 13 -8 18 -29 10z"/>
<path d="M1590 2030 c-8 -5 -12 -12 -9 -15 4 -3 12 1 19 10 14 17 11 19 -10 5z"/>
<path d="M2835 2024 c-17 -12 -17 -14 -2 -14 9 0 17 -5 17 -11 0 -7 10 -9 24
-5 14 3 27 2 30 -2 2 -4 -12 -9 -32 -10 -46 -4 -56 -12 -13 -12 41 0 123 -20
136 -32 7 -7 1 -8 -15 -4 -22 6 -23 5 -7 -5 32 -19 44 6 13 26 -15 10 -25 20
-22 22 8 8 60 -25 90 -56 37 -39 51 -39 54 -1 2 25 -2 30 -20 31 -13 1 -27 1
-31 0 -5 -1 -22 10 -38 23 -16 14 -46 28 -67 31 -20 3 -51 12 -67 19 -26 12
-34 11 -50 0z m250 -92 c-3 -3 -11 0 -18 7 -9 10 -8 11 6 5 10 -3 15 -9 12
-12z"/>
<path d="M2420 2020 c0 -13 20 -13 40 0 12 8 9 10 -12 10 -16 0 -28 -4 -28
-10z"/>
<path d="M2016 1996 c4 -11 -3 -14 -31 -12 -26 1 -41 -5 -57 -23 -14 -16 -16
-22 -5 -18 8 3 18 3 21 0 7 -7 -44 -69 -54 -66 -10 3 0 -46 11 -52 11 -8 59
65 59 90 0 12 7 30 15 41 15 18 15 18 9 -8 -7 -34 3 -35 42 -7 l29 21 -27 -25
c-16 -14 -35 -30 -44 -35 -9 -5 -16 -21 -16 -36 0 -19 -5 -26 -17 -24 -10 2
-17 -5 -19 -18 -2 -16 3 -23 23 -26 14 -3 28 -1 31 3 3 5 1 9 -5 9 -7 0 -7 8
-1 25 7 18 6 25 -3 26 -6 0 -2 5 11 11 31 15 36 5 18 -30 -15 -29 -15 -31 3
-29 12 1 17 7 14 18 -3 10 3 18 16 22 12 3 21 1 21 -5 0 -5 5 -6 10 -3 18 11
91 15 85 5 -3 -6 -2 -10 4 -10 5 0 12 4 16 9 12 21 61 37 88 30 21 -6 38 -2
63 13 19 11 34 17 34 14 0 -4 12 0 28 8 15 7 42 12 59 11 18 -1 38 3 44 11 17
20 36 17 73 -11 29 -22 45 -26 112 -27 44 -1 99 0 124 1 37 3 40 4 20 10 -23
7 -22 8 14 14 24 4 45 2 53 -5 7 -6 16 -8 20 -4 3 3 1 6 -5 6 -7 0 -12 5 -12
11 0 6 7 9 15 5 8 -3 15 -1 15 4 0 6 -28 9 -65 7 -36 -1 -65 -4 -65 -7 0 -6
-26 -9 -84 -10 -60 0 -143 29 -139 48 3 14 -41 20 -129 18 -48 -2 -75 1 -71 7
3 6 1 7 -6 3 -6 -4 -8 -12 -5 -18 5 -7 -2 -9 -20 -4 -16 4 -26 2 -26 -5 0 -7
-12 -9 -34 -5 -33 6 -60 -8 -34 -17 7 -2 -2 -6 -20 -9 l-32 -5 22 24 21 23
-21 0 c-12 0 -36 -9 -54 -20 -35 -21 -63 -27 -53 -10 3 6 14 10 24 10 24 0 47
26 29 32 -15 6 -49 4 -95 -6 -20 -4 -33 -2 -33 4 0 5 -4 10 -10 10 -5 0 -7 -6
-4 -14z m89 -16 c-3 -5 -13 -10 -21 -10 -8 0 -12 5 -9 10 3 6 13 10 21 10 8 0
12 -4 9 -10z m255 -45 c-7 -9 -15 -13 -18 -10 -3 2 1 11 8 20 7 9 15 13 18 10
3 -2 -1 -11 -8 -20z"/>
<path d="M1875 1980 c-16 -7 -17 -9 -3 -9 9 -1 20 4 23 9 7 11 7 11 -20 0z"/>
<path d="M1287 1925 c7 -37 9 -39 28 -32 8 4 15 16 15 28 0 16 -5 20 -20 16
-10 -3 -21 0 -24 7 -3 6 -3 -2 1 -19z"/>
<path d="M1540 1920 c-8 -5 -11 -12 -7 -16 4 -4 13 -2 19 4 15 15 7 24 -12 12z"/>
<path d="M1880 1900 c-8 -5 -23 -7 -32 -4 -23 7 -23 -5 -1 -21 13 -9 13 -14 3
-20 -9 -5 -11 -4 -6 3 4 7 1 12 -8 12 -14 0 -14 -3 -4 -20 11 -18 14 -18 30
-3 10 9 15 20 12 25 -3 5 2 16 12 23 21 16 17 20 -6 5z"/>
<path d="M1195 1870 c-3 -5 -1 -10 4 -10 6 0 11 5 11 10 0 6 -2 10 -4 10 -3 0
-8 -4 -11 -10z"/>
<path d="M1475 1820 c3 -5 8 -10 11 -10 2 0 4 5 4 10 0 6 -5 10 -11 10 -5 0
-7 -4 -4 -10z"/>
<path d="M1810 1826 c0 -2 7 -9 15 -16 9 -7 15 -8 15 -2 0 5 -7 12 -15 16 -8
3 -15 4 -15 2z"/>
<path d="M2251 1796 c-17 -21 4 -30 23 -10 9 8 16 17 16 20 0 10 -29 3 -39
-10z"/>
<path d="M2000 1790 c0 -5 5 -10 10 -10 6 0 10 5 10 10 0 6 -4 10 -10 10 -5 0
-10 -4 -10 -10z"/>
<path d="M1745 1770 c3 -5 10 -10 16 -10 5 0 9 5 9 10 0 6 -7 10 -16 10 -8 0
-12 -4 -9 -10z"/>
<path d="M2015 1770 c-3 -5 3 -10 14 -10 11 0 23 5 26 10 3 6 -3 10 -14 10
-11 0 -23 -4 -26 -10z"/>
<path d="M1597 1745 c3 -8 9 -12 14 -9 12 7 11 11 -5 17 -10 4 -13 1 -9 -8z"/>
<path d="M225 1710 c-3 -6 1 -13 10 -16 19 -8 30 0 20 15 -8 14 -22 14 -30 1z"/>
<path d="M3055 1710 c-3 -5 -2 -10 2 -10 5 0 9 -10 10 -21 2 -23 31 -89 39
-89 3 0 4 27 3 60 -1 33 -4 58 -7 55 -3 -2 -13 0 -23 5 -12 7 -20 7 -24 0z"/>
<path d="M2938 1644 c-27 -13 -48 -26 -48 -29 0 -3 21 4 48 14 26 10 59 17 75
15 23 -2 25 -1 13 12 -20 19 -33 17 -88 -12z"/>
<path d="M18 1653 c6 -2 18 -2 25 0 6 3 1 5 -13 5 -14 0 -19 -2 -12 -5z"/>
<path d="M1660 1623 c-34 -6 -41 -15 -42 -51 -1 -30 -20 -48 -39 -36 -5 3 -9
0 -9 -5 0 -6 -5 -11 -11 -11 -5 0 -7 5 -3 11 7 12 -14 9 -70 -8 -12 -3 -16 -1
-12 6 9 14 -11 13 -54 -4 -32 -13 -27 -14 75 -11 156 5 187 13 197 54 5 17 13
32 18 32 6 0 10 7 10 15 0 15 -12 16 -60 8z"/>
<path d="M745 1610 c3 -5 8 -10 11 -10 2 0 4 5 4 10 0 6 -5 10 -11 10 -5 0 -7
-4 -4 -10z"/>
<path d="M2845 1580 c-16 -17 -16 -20 -3 -15 9 4 19 13 22 21 7 19 2 18 -19
-6z"/>
<path d="M2252 1555 c-35 -15 -43 -28 -44 -71 -2 -79 2 -96 22 -101 21 -6 27
-28 10 -38 -7 -4 -5 -13 4 -26 9 -14 11 -30 6 -55 -10 -44 -69 -142 -90 -149
-47 -16 -88 -82 -74 -119 5 -14 63 -56 77 -56 3 0 7 12 9 26 3 25 9 21 96 -64
l94 -91 -41 -18 c-23 -10 -41 -21 -41 -25 0 -11 37 -10 80 2 130 34 160 43
160 51 0 5 6 9 13 9 6 1 22 9 35 20 20 16 21 22 12 41 -10 17 -9 23 1 30 12 7
11 11 -1 20 -8 6 -11 12 -5 15 6 2 9 36 7 84 -3 57 -1 80 8 80 7 0 11 -16 10
-42 -1 -24 -1 -54 0 -68 l2 -25 8 25 c4 14 8 42 9 63 1 25 6 37 15 37 8 0 27
5 43 12 15 6 33 10 40 9 14 -2 28 43 18 58 -13 22 -26 11 -14 -11 7 -14 -4 -7
-29 18 -40 40 -59 70 -27 44 13 -11 14 -9 1 14 -7 15 -22 33 -32 41 -18 14
-18 14 4 15 12 0 22 3 22 8 -1 13 -89 64 -101 57 -6 -4 -13 2 -16 14 -7 29
-29 20 -25 -10 2 -19 0 -21 -8 -9 -9 13 -12 13 -24 -2 -18 -24 -22 -23 -20 10
1 19 -8 35 -32 55 -19 16 -34 35 -34 42 0 22 -20 28 -38 12 -26 -22 -61 -30
-77 -17 -17 14 -9 41 11 33 9 -3 14 1 14 12 0 12 -5 15 -17 11 -16 -6 -16 -6
0 12 9 10 14 22 10 25 -9 9 -13 9 -51 -8z m168 -190 c31 -12 32 -14 10 -14
-43 -1 -100 11 -94 20 7 13 43 10 84 -6z m125 -25 c3 -5 1 -10 -6 -10 -7 0 -5
-6 5 -13 15 -11 19 -30 21 -115 1 -56 0 -102 -2 -102 -13 0 -33 79 -39 151 -3
46 -8 87 -11 92 -2 4 3 7 11 7 8 0 18 -4 21 -10z m82 -90 c11 0 13 -5 7 -17
-4 -10 -7 -34 -7 -53 1 -33 1 -34 -9 -10 -6 14 -16 37 -24 51 -10 20 -11 28
-1 38 8 8 13 8 15 1 2 -5 11 -10 19 -10z m20 -77 c-3 -10 -5 -2 -5 17 0 19 2
27 5 18 2 -10 2 -26 0 -35z m-147 18 c0 -17 -3 -18 -31 -8 l-31 12 28 6 c16 4
30 7 32 8 1 0 2 -8 2 -18z m-61 -75 c11 -61 14 -113 7 -105 -3 3 -10 36 -16
74 -5 39 -12 81 -15 95 -4 18 -3 21 4 10 5 -8 14 -42 20 -74z m155 28 c3 -8 2
-12 -4 -9 -6 3 -10 10 -10 16 0 14 7 11 14 -7z"/>
<path d="M2337 1534 c-3 -4 1 -13 9 -21 18 -18 27 -13 18 11 -6 17 -16 20 -27
10z"/>
<path d="M348 1523 c6 -2 18 -2 25 0 6 3 1 5 -13 5 -14 0 -19 -2 -12 -5z"/>
<path d="M1155 1498 c-60 -4 -180 -16 -265 -25 -85 -10 -198 -18 -250 -19 -77
-2 -103 -6 -134 -23 -36 -21 -112 -51 -128 -51 -18 0 -6 31 17 46 36 23 20 37
-34 31 -40 -5 -49 -2 -59 14 -7 11 -17 17 -22 14 -6 -4 -8 -11 -5 -16 4 -5 -1
-9 -10 -9 -9 0 -14 -4 -11 -9 10 -16 -44 -22 -65 -7 -22 15 -42 12 -112 -18
-21 -9 -46 -15 -55 -14 -16 3 -17 -24 -19 -349 l-2 -351 22 -6 c12 -3 40 -5
62 -5 22 1 32 3 22 6 -28 7 -14 27 19 28 35 1 54 11 54 30 0 9 6 12 18 8 13
-5 14 -3 5 7 -6 7 -25 14 -43 15 -33 3 -55 15 -27 15 10 0 17 4 17 10 0 5 17
12 38 15 124 21 208 39 217 46 5 5 17 9 28 9 10 0 47 14 82 31 46 22 66 38 73
58 l9 27 -91 -3 c-50 -1 -129 -4 -176 -7 -67 -3 -89 -1 -102 12 -20 17 -23 32
-8 32 6 0 27 11 48 24 20 14 57 30 82 37 25 6 39 14 33 16 -7 3 -13 9 -13 14
0 11 110 119 120 119 4 0 19 11 34 25 18 17 39 25 64 26 20 0 48 3 62 7 44 11
184 6 209 -7 19 -11 25 -11 31 0 7 10 15 8 37 -6 l28 -19 -35 -9 c-19 -4 -43
-8 -52 -8 -21 0 -24 -19 -6 -37 14 -14 79 -16 94 -3 5 5 32 21 59 36 28 15 78
43 112 62 58 32 67 34 119 27 l56 -7 -13 24 c-11 22 -11 23 4 10 17 -13 48
-11 92 5 18 7 18 6 6 -9 -24 -30 5 -18 45 18 21 19 46 37 56 41 10 3 18 8 18
12 0 13 -73 39 -128 47 -28 4 -49 11 -46 16 6 10 -22 10 -181 -3z m-19 -155
c-8 -8 -36 5 -36 17 0 7 6 7 21 0 11 -7 18 -14 15 -17z m-142 -32 c10 -11 16
-25 14 -31 -4 -14 -48 17 -48 36 0 20 14 18 34 -5z m-907 -547 c-3 -3 -12 -4
-19 -1 -8 3 -5 6 6 6 11 1 17 -2 13 -5z m-30 -30 c-3 -3 -12 -4 -19 -1 -8 3
-5 6 6 6 11 1 17 -2 13 -5z"/>
<path d="M313 1473 c9 -9 20 -13 24 -9 4 4 1 11 -7 16 -25 16 -35 11 -17 -7z"/>
<path d="M215 1450 c-3 -5 -2 -10 4 -10 5 0 13 5 16 10 3 6 2 10 -4 10 -5 0
-13 -4 -16 -10z"/>
<path d="M2620 1359 c0 -4 7 -9 15 -13 9 -3 15 0 15 8 0 7 -7 13 -15 13 -8 0
-15 -4 -15 -8z"/>
<path d="M820 1206 c0 -9 5 -16 10 -16 6 0 10 4 10 9 0 6 -4 13 -10 16 -5 3
-10 -1 -10 -9z"/>
<path d="M786 1185 c-9 -26 -7 -32 5 -12 6 10 9 21 6 23 -2 3 -7 -2 -11 -11z"/>
<path d="M665 1150 c-3 -5 -24 -9 -46 -8 -22 1 -44 -3 -49 -8 -8 -8 12 -9 76
-5 15 1 51 30 37 31 -6 0 -15 -4 -18 -10z"/>
<path d="M458 1123 c7 -3 16 -2 19 1 4 3 -2 6 -13 5 -11 0 -14 -3 -6 -6z"/>
<path d="M2995 1091 c-3 -6 -11 -8 -17 -5 -6 4 -8 3 -5 -3 3 -5 -7 -17 -23
-26 -30 -18 -45 -10 -34 17 12 31 -7 16 -21 -16 l-14 -33 -1 34 c0 32 -1 33
-18 18 -23 -21 -32 -21 -32 -1 0 8 -5 12 -11 9 -6 -4 -8 -14 -5 -22 3 -8 1
-11 -4 -8 -6 3 -10 -2 -10 -12 0 -11 -5 -24 -12 -31 -9 -9 -8 -12 5 -12 9 0
17 8 17 18 0 11 3 13 8 6 7 -13 23 -11 116 9 46 10 61 18 68 37 9 24 5 39 -7
21z"/>
<path d="M3030 1070 c-13 -8 -12 -10 3 -10 9 0 17 5 17 10 0 12 -1 12 -20 0z"/>
<path d="M3068 1063 c7 -3 16 -2 19 1 4 3 -2 6 -13 5 -11 0 -14 -3 -6 -6z"/>
<path d="M2610 975 c-9 -11 -10 -19 -3 -26 7 -7 12 -2 15 15 6 30 5 31 -12 11z"/>
<path d="M2639 963 c-13 -15 -12 -15 6 -6 11 6 27 13 35 16 10 4 8 6 -6 6 -12
1 -28 -6 -35 -16z"/>
<path d="M2467 769 c3 -9 -3 -19 -13 -23 -14 -5 -15 -4 -4 9 11 13 8 15 -26 9
-21 -3 -47 -12 -57 -19 -17 -12 -17 -14 12 -20 27 -6 29 -9 21 -26 -13 -24
-13 -24 36 1 52 28 110 70 95 70 -7 0 -10 3 -8 8 3 4 -10 7 -27 7 -25 0 -32
-4 -29 -16z"/>
<path d="M2210 754 c-16 -8 -19 -14 -9 -14 8 0 24 7 35 15 24 18 7 18 -26 -1z"/>
<path d="M678 753 c12 -2 32 -2 45 0 12 2 2 4 -23 4 -25 0 -35 -2 -22 -4z"/>
<path d="M325 740 c4 -6 -7 -8 -27 -4 -22 4 -29 3 -20 -4 8 -5 13 -13 12 -18
-1 -4 8 -12 20 -16 12 -4 19 -4 16 1 -3 5 1 11 9 15 20 7 19 36 -1 36 -8 0
-12 -4 -9 -10z"/>
<path d="M618 743 c6 -2 18 -2 25 0 6 3 1 5 -13 5 -14 0 -19 -2 -12 -5z"/>
<path d="M2275 732 c-4 -4 -10 -8 -13 -8 -31 -7 -52 -19 -52 -30 0 -8 5 -14
10 -14 6 0 10 4 10 9 0 5 16 12 35 15 19 4 37 11 40 15 6 11 -20 22 -30 13z"/>
<path d="M188 723 c6 -2 18 -2 25 0 6 3 1 5 -13 5 -14 0 -19 -2 -12 -5z"/>
<path d="M2000 720 c-13 -8 -13 -10 2 -10 9 0 20 5 23 10 8 13 -5 13 -25 0z"/>
<path d="M578 693 c7 -3 16 -2 19 1 4 3 -2 6 -13 5 -11 0 -14 -3 -6 -6z"/>
<path d="M623 693 c9 -2 23 -2 30 0 6 3 -1 5 -18 5 -16 0 -22 -2 -12 -5z"/>
<path d="M398 683 c7 -3 16 -2 19 1 4 3 -2 6 -13 5 -11 0 -14 -3 -6 -6z"/>
<path d="M2170 680 c0 -5 -9 -10 -21 -10 -11 0 -17 -4 -14 -10 3 -5 -9 -16
-27 -23 -18 -8 -42 -25 -53 -37 l-20 -23 25 13 c14 7 46 28 73 46 26 19 52 34
58 34 5 0 7 5 4 10 -3 6 -10 10 -16 10 -5 0 -9 -4 -9 -10z"/>
<path d="M23 652 c-13 -2 -23 -7 -23 -12 0 -10 103 -24 122 -17 7 3 -2 6 -21
6 -19 1 -39 7 -45 14 -6 7 -21 11 -33 9z"/>
<path d="M2303 614 c-17 -20 -25 -33 -17 -30 9 3 19 6 23 6 13 0 51 37 51 49
0 21 -25 11 -57 -25z"/>
<path d="M160 631 c-25 -7 -25 -7 -2 -13 12 -3 22 -2 22 3 0 5 5 9 11 9 5 0 7
-4 4 -10 -4 -6 6 -10 22 -10 l28 0 -29 15 c-15 8 -29 15 -30 14 0 -1 -12 -4
-26 -8z"/>
<path d="M1768 583 c7 -3 16 -2 19 1 4 3 -2 6 -13 5 -11 0 -14 -3 -6 -6z"/>
<path d="M1445 570 c-4 -6 -3 -14 0 -20 3 -5 -1 -10 -10 -10 -9 0 -13 5 -9 11
4 8 0 8 -15 0 -28 -15 -27 -29 4 -36 14 -3 36 -7 50 -10 21 -5 25 -2 25 18 0
25 -36 62 -45 47z"/>
<path d="M2103 566 c-11 -6 -18 -16 -16 -23 2 -6 -8 -19 -24 -27 -26 -14 -26
-15 -6 -16 14 0 28 11 40 30 18 32 33 39 33 16 0 -8 -7 -17 -16 -20 -25 -10
-6 -26 27 -22 33 3 65 29 55 44 -3 6 -14 8 -25 5 -10 -2 -25 2 -33 10 -11 12
-19 12 -35 3z"/>
<path d="M2860 565 c-7 -8 -19 -15 -28 -15 -11 0 -52 -35 -52 -45 0 -1 13 -2
30 -1 21 1 30 6 30 18 0 9 10 24 22 32 12 9 19 18 16 21 -3 3 -11 -1 -18 -10z"/>
<path d="M2340 545 c-8 -9 -8 -15 -2 -15 12 0 26 19 19 26 -2 2 -10 -2 -17
-11z"/>
<path d="M1165 530 c-3 -5 -1 -10 4 -10 6 0 11 5 11 10 0 6 -2 10 -4 10 -3 0
-8 -4 -11 -10z"/>
<path d="M1205 530 c4 -6 11 -8 16 -5 14 9 11 15 -7 15 -8 0 -12 -5 -9 -10z"/>
<path d="M1606 525 c-3 -8 -1 -15 4 -15 6 0 10 7 10 15 0 8 -2 15 -4 15 -2 0
-6 -7 -10 -15z"/>
<path d="M2218 530 c17 -20 15 -38 -6 -44 -9 -3 -23 -15 -30 -27 -12 -18 -12
-23 0 -30 11 -7 10 -9 -1 -9 -8 0 -11 -3 -8 -7 4 -3 15 1 24 10 10 8 30 18 45
22 16 4 25 12 22 20 -3 7 2 15 11 19 9 3 13 2 10 -4 -3 -6 -1 -10 6 -10 8 0 7
-5 -2 -17 -8 -9 -9 -14 -3 -10 7 4 14 0 18 -8 3 -8 1 -15 -4 -15 -6 0 -10 -6
-10 -14 0 -8 -7 -17 -16 -20 -25 -10 -7 -24 23 -18 16 3 46 22 68 44 22 21 50
41 62 43 13 3 35 8 51 11 l27 6 -23 9 c-15 5 -31 5 -42 -1 -15 -8 -21 -6 -29
9 -8 15 -7 20 6 25 9 4 13 9 10 12 -9 10 -47 -16 -47 -33 0 -13 -3 -13 -16 -2
-13 10 -19 10 -36 0 -19 -12 -20 -11 -15 8 6 24 3 25 -25 10 -18 -10 -20 -9
-15 5 5 12 1 15 -16 12 -12 -2 -29 1 -37 7 -12 9 -13 9 -2 -3z"/>
<path d="M1928 503 c7 -3 16 -2 19 1 4 3 -2 6 -13 5 -11 0 -14 -3 -6 -6z"/>
<path d="M1056 480 c-15 -5 -16 -9 -7 -14 7 -5 18 -3 24 3 14 14 6 20 -17 11z"/>
<path d="M2668 460 c3 -23 9 -30 26 -29 53 1 67 29 21 41 -11 3 -27 9 -36 12
-13 6 -15 1 -11 -24z"/>
<path d="M2768 483 c7 -3 16 -2 19 1 4 3 -2 6 -13 5 -11 0 -14 -3 -6 -6z"/>
<path d="M910 461 c0 -6 5 -13 10 -16 6 -3 10 1 10 9 0 9 -4 16 -10 16 -5 0
-10 -4 -10 -9z"/>
<path d="M2940 450 c0 -5 5 -10 11 -10 5 0 7 5 4 10 -3 6 -8 10 -11 10 -2 0
-4 -4 -4 -10z"/>
<path d="M534 438 c-13 -23 -70 -36 -137 -30 -48 4 -56 2 -51 -11 8 -22 -8
-28 -45 -17 -27 7 -32 6 -27 -5 6 -16 -24 -9 -36 9 -5 7 -8 7 -8 -1 0 -7 -8
-13 -18 -13 -31 0 -42 -20 -22 -40 16 -16 25 -17 62 -8 23 5 57 7 73 4 17 -3
73 -8 125 -10 74 -3 103 -8 133 -25 44 -25 57 -26 57 -7 0 19 41 28 60 12 8
-7 22 -17 30 -21 12 -6 13 -5 3 6 -7 7 -13 21 -13 31 0 15 -8 18 -44 18 -36 0
-47 5 -60 25 -12 19 -13 25 -4 26 61 5 107 2 128 -8 36 -18 71 -17 64 2 -4 8
-16 15 -29 15 -12 0 -35 10 -51 22 -15 13 -24 16 -19 9 6 -11 4 -13 -9 -8 -9
4 -15 3 -11 -2 3 -5 -16 -9 -42 -8 -41 2 -49 -1 -60 -23 -9 -18 -13 -20 -13
-7 0 9 -7 17 -15 17 -21 0 -19 9 8 33 15 14 17 18 5 14 -9 -3 -18 -1 -21 6 -2
7 -7 6 -13 -5z m-4 -53 c29 -15 40 -35 20 -35 -5 0 -10 5 -10 10 0 6 -19 10
-42 10 -40 1 -42 2 -24 15 24 18 21 18 56 0z m-210 -31 c0 -2 -7 -4 -15 -4 -8
0 -15 4 -15 10 0 5 7 7 15 4 8 -4 15 -8 15 -10z m95 0 c-35 -15 -55 -17 -55
-6 0 14 7 17 47 18 l38 2 -30 -14z"/>
<path d="M2860 430 c0 -5 5 -10 11 -10 5 0 7 5 4 10 -3 6 -8 10 -11 10 -2 0
-4 -4 -4 -10z"/>
<path d="M2911 417 c-8 -11 -5 -17 16 -26 27 -12 42 -3 43 27 0 16 -45 16 -59
-1z"/>
<path d="M3095 420 c3 -5 0 -10 -8 -10 -8 0 -20 -6 -26 -14 -7 -8 -21 -13 -32
-11 -11 2 -22 -2 -26 -10 -3 -8 -12 -15 -20 -15 -13 0 -13 -3 -3 -15 9 -10 9
-15 1 -15 -6 0 -11 -5 -11 -11 0 -8 4 -8 13 -1 6 6 27 9 45 8 28 -2 31 0 26
18 -6 19 -4 19 15 -3 17 -19 24 -22 34 -12 9 9 9 14 -3 21 -10 7 -11 10 -2 10
7 0 12 14 12 35 0 19 -5 35 -11 35 -5 0 -7 -4 -4 -10z"/>
<path d="M903 413 c-13 -2 -23 -8 -23 -12 0 -5 11 -6 25 -3 21 4 25 1 25 -21
0 -18 7 -26 25 -31 14 -4 25 -10 25 -15 0 -5 17 -3 38 5 20 7 47 13 60 14 12
0 22 4 22 9 0 15 -18 23 -25 12 -4 -7 -15 -7 -30 -1 -14 5 -38 7 -54 4 -18 -4
-32 -1 -36 7 -5 7 -4 10 3 5 13 -8 26 10 16 25 -4 8 -9 8 -17 0 -14 -14 -30
-14 -22 -1 3 6 3 9 -2 9 -4 -1 -18 -4 -30 -6z"/>
<path d="M1238 403 c6 -2 18 -2 25 0 6 3 1 5 -13 5 -14 0 -19 -2 -12 -5z"/>
<path d="M1335 394 c18 -13 35 -11 35 5 0 5 -12 9 -27 9 -25 0 -25 -1 -8 -14z"/>
<path d="M2667 402 c-8 -12 4 -62 15 -62 5 0 7 4 4 9 -4 5 -2 11 4 13 5 1 7
13 4 26 -6 22 -19 29 -27 14z"/>
<path d="M0 385 c0 -8 7 -15 15 -15 9 0 12 6 9 15 -4 8 -10 15 -15 15 -5 0 -9
-7 -9 -15z"/>
<path d="M75 390 c-3 -5 -1 -10 4 -10 6 0 11 5 11 10 0 6 -2 10 -4 10 -3 0 -8
-4 -11 -10z"/>
<path d="M2547 369 c-21 -11 -35 -24 -32 -29 4 -6 -1 -10 -10 -10 -16 0 -45
-22 -45 -34 0 -8 34 -8 55 0 9 4 20 17 25 30 8 20 13 22 40 14 30 -9 31 -8 28
17 -4 34 -15 36 -61 12z"/>
<path d="M2894 376 c-5 -6 -21 -19 -35 -28 -23 -16 -23 -17 -3 -17 12 -1 24 6
28 14 3 8 12 15 21 15 8 0 15 4 15 9 0 16 -14 20 -26 7z"/>
<path d="M816 353 c-12 -12 -5 -23 14 -23 11 0 20 4 20 9 0 11 -26 22 -34 14z"/>
<path d="M2709 355 c-1 -3 -3 -9 -4 -15 -1 -5 -3 -14 -4 -20 0 -5 -9 -10 -18
-11 -12 0 -13 -2 -5 -6 17 -7 44 17 38 33 -3 7 0 15 7 18 9 3 9 5 0 5 -7 1
-14 -1 -14 -4z"/>
<path d="M2930 350 c0 -6 7 -10 15 -10 8 0 15 2 15 4 0 2 -7 6 -15 10 -8 3
-15 1 -15 -4z"/>
<path d="M778 333 c7 -3 16 -2 19 1 4 3 -2 6 -13 5 -11 0 -14 -3 -6 -6z"/>
<path d="M2906 325 c-3 -10 -12 -15 -19 -12 -8 3 -20 1 -28 -4 -9 -5 -23 -2
-37 7 -17 11 -27 13 -35 5 -11 -11 -3 -15 38 -24 16 -3 13 -7 -17 -21 -21 -9
-38 -21 -38 -26 0 -6 -8 -10 -18 -10 -10 0 -25 -9 -35 -20 -16 -19 -16 -20 7
-20 13 0 29 -7 36 -15 10 -12 15 -12 36 1 13 9 31 14 39 10 8 -3 15 0 15 5 0
6 9 9 19 6 29 -7 34 20 8 44 -22 20 -22 21 -3 35 15 11 22 11 27 2 8 -12 23
-5 25 13 3 20 5 21 17 10 10 -8 14 -7 14 4 0 8 -4 15 -8 15 -4 0 -14 3 -22 6
-8 3 -17 -2 -21 -11z"/>
<path d="M2540 289 c0 -5 5 -7 10 -4 6 3 10 8 10 11 0 2 -4 4 -10 4 -5 0 -10
-5 -10 -11z"/>
<path d="M100 280 c-12 -7 -10 -9 7 -7 12 0 19 5 17 9 -6 10 -6 10 -24 -2z"/>
<path d="M2637 284 c-15 -15 -6 -32 13 -27 12 3 19 10 17 16 -4 14 -21 19 -30
11z"/>
<path d="M428 273 c7 -3 16 -2 19 1 4 3 -2 6 -13 5 -11 0 -14 -3 -6 -6z"/>
<path d="M3040 260 c0 -11 -5 -22 -12 -26 -8 -5 -9 -1 -4 12 6 15 5 17 -5 7
-7 -7 -21 -13 -32 -13 -10 0 -16 -4 -13 -9 3 -5 -1 -12 -10 -15 -10 -4 -13 -2
-8 7 5 8 2 7 -9 -2 -9 -7 -17 -19 -17 -27 0 -7 -9 -19 -20 -27 -20 -14 -20
-15 12 -22 18 -4 27 -9 21 -12 -7 -2 -13 -11 -13 -19 0 -9 -4 -13 -9 -10 -14
9 -42 -5 -34 -17 4 -6 0 -8 -9 -5 -15 6 -42 -25 -31 -36 10 -10 45 -7 38 4 -3
5 0 7 9 4 8 -3 12 -12 9 -20 -3 -8 -8 -12 -12 -10 -3 2 -15 -2 -26 -10 -16
-12 -3 -14 113 -14 l132 0 0 138 0 138 -35 1 c-28 1 -35 -3 -35 -17z m-53 -82
c-3 -8 -6 -5 -6 6 -1 11 2 17 5 13 3 -3 4 -12 1 -19z m68 -18 c8 -13 -15 -13
-35 0 -12 8 -11 10 7 10 12 0 25 -4 28 -10z"/>
<path d="M2574 215 c-10 -8 -14 -15 -8 -15 6 0 17 7 24 15 16 19 9 19 -16 0z"/>
<path d="M2495 176 c-70 -38 -69 -38 -51 -48 9 -5 14 -13 11 -19 -4 -5 -17 -2
-31 7 -23 16 -24 16 -24 -11 0 -27 -1 -27 -47 -20 -56 8 -55 8 -47 28 3 9 13
14 22 11 13 -4 13 -3 -1 6 -13 8 -22 9 -29 2 -6 -6 -16 -9 -22 -8 -6 2 -8 1
-3 -1 4 -3 4 -9 1 -15 -3 -5 4 -17 17 -26 25 -18 66 -28 164 -38 33 -4 63 -12
67 -18 5 -7 8 -7 8 2 0 9 8 11 23 8 12 -3 17 -3 11 0 -13 6 -7 44 8 44 5 0 23
-7 39 -16 29 -15 30 -16 12 -29 -15 -12 -12 -12 24 -2 28 7 45 19 53 36 9 20
13 22 20 11 5 -8 12 -11 16 -7 4 3 1 13 -6 22 -7 8 -10 16 -6 16 3 1 9 2 14 3
4 1 13 5 21 10 12 7 10 11 -9 18 -14 5 -27 5 -33 -1 -5 -5 -16 -7 -25 -4 -10
5 -13 2 -8 -6 11 -17 -22 -40 -58 -41 -28 0 -28 1 -13 18 10 10 17 24 17 31 0
7 6 11 15 8 8 -4 17 -2 20 3 4 6 -8 9 -28 8 -19 -2 -33 -6 -31 -10 2 -4 -9 -6
-26 -6 -16 1 -30 5 -30 9 0 4 -8 9 -17 11 -15 3 -15 4 1 21 23 23 10 21 -39
-7z m5 -30 c0 -2 -8 -10 -17 -17 -16 -13 -17 -12 -4 4 13 16 21 21 21 13z"/>
<path d="M2060 180 c-13 -8 -12 -10 3 -10 9 0 17 5 17 10 0 12 -1 12 -20 0z"/>
<path d="M17 149 c-23 -13 -22 -39 1 -32 10 2 18 13 19 24 1 10 1 19 0 19 -1
0 -10 -5 -20 -11z"/>
<path d="M368 153 c7 -3 16 -2 19 1 4 3 -2 6 -13 5 -11 0 -14 -3 -6 -6z"/>
<path d="M2133 138 c4 -11 0 -21 -11 -27 -14 -8 -14 -10 -2 -11 8 0 22 5 30
10 13 8 12 12 -4 27 -17 17 -18 17 -13 1z"/>
<path d="M2808 88 c5 -5 16 -8 23 -6 8 3 3 7 -10 11 -17 4 -21 3 -13 -5z"/>
<path d="M468 78 c5 -5 16 -8 23 -6 8 3 3 7 -10 11 -17 4 -21 3 -13 -5z"/>
<path d="M2815 60 c3 -5 8 -10 11 -10 2 0 4 5 4 10 0 6 -5 10 -11 10 -5 0 -7
-4 -4 -10z"/>
<path d="M300 20 c-9 -6 -10 -10 -3 -10 6 0 15 5 18 10 8 12 4 12 -15 0z"/>
<path d="M2420 10 c0 -5 9 -10 20 -10 11 0 20 5 20 10 0 6 -9 10 -20 10 -11 0
-20 -4 -20 -10z"/>
</g>
</svg>
