<?xml version="1.0" standalone="no"?>
<!DOCTYPE svg PUBLIC "-//W3C//DTD SVG 20010904//EN"
 "http://www.w3.org/TR/2001/REC-SVG-20010904/DTD/svg10.dtd">
<svg version="1.0" xmlns="http://www.w3.org/2000/svg"
 width="311.000000pt" height="416.000000pt" viewBox="0 0 311.000000 416.000000"
 preserveAspectRatio="xMidYMid meet">

<g transform="translate(0.000000,416.000000) scale(0.100000,-0.100000)"
fill="#000000" stroke="none">
<path d="M0 2080 l0 -2080 1555 0 1555 0 0 483 c0 470 0 482 -20 495 -28 17
-73 91 -66 109 8 21 -17 43 -36 32 -24 -13 -158 -21 -158 -9 0 5 7 10 15 10 8
0 15 4 15 10 0 5 -7 7 -15 4 -8 -4 -15 -1 -15 6 0 8 20 11 70 8 59 -3 70 -1
68 12 -4 27 12 40 52 40 24 0 40 5 44 15 6 17 -7 19 -35 5 -11 -6 -19 -7 -19
-1 0 5 -8 7 -19 4 -14 -3 -20 2 -25 22 -9 36 0 59 36 96 27 27 35 30 61 22 29
-8 30 -10 31 -71 0 -34 4 -62 9 -62 11 0 8 135 -4 147 -8 8 -8 13 0 17 8 5 11
404 11 1387 l0 1379 -1555 0 -1555 0 0 -2080z m2340 2020 c0 -5 -4 -10 -10
-10 -5 0 -10 5 -10 10 0 6 5 10 10 10 6 0 10 -4 10 -10z m-1205 -38 c-4 -12
-3 -13 10 -2 11 9 15 9 15 1 0 -7 5 -9 12 -5 7 4 8 3 4 -5 -4 -6 -11 -9 -16
-6 -4 3 -14 -3 -21 -12 -12 -14 -12 -16 0 -8 11 6 13 3 9 -12 -5 -19 -3 -20
25 -12 17 5 33 6 36 3 3 -2 -4 -7 -16 -10 -12 -3 -24 -13 -27 -21 -3 -7 -2
-11 3 -8 5 3 13 0 17 -6 3 -6 0 -15 -7 -20 -7 -4 -11 -10 -8 -13 3 -3 15 3 26
14 20 18 22 18 37 1 18 -20 20 -31 6 -31 -5 0 -9 5 -7 11 1 6 -4 14 -12 17
-10 3 -12 0 -8 -12 4 -9 3 -14 -2 -11 -5 3 -12 1 -15 -4 -4 -5 -2 -12 3 -15 5
-4 8 -18 6 -33 -3 -28 14 -53 37 -53 10 0 10 -2 1 -8 -6 -4 -14 -20 -17 -35
-3 -16 -1 -25 5 -21 6 3 8 -5 5 -20 -3 -17 -1 -24 6 -20 7 4 8 -5 3 -27 -7
-29 -6 -32 7 -21 13 10 16 9 20 -12 6 -28 -9 -59 -23 -51 -5 4 -9 -1 -9 -9 0
-10 7 -14 23 -11 21 4 21 3 4 -9 -18 -14 -18 -14 1 -20 10 -4 19 -13 19 -21 0
-11 -3 -12 -14 -3 -8 6 -13 7 -11 2 1 -5 -3 -19 -11 -32 -7 -13 -10 -28 -7
-35 2 -7 5 -3 6 8 1 18 1 19 11 3 5 -10 20 -19 32 -19 17 -1 15 -3 -8 -9 -16
-4 -23 -8 -14 -9 9 0 22 -8 29 -16 10 -12 9 -15 -6 -16 -11 -1 -23 -1 -27 0
-5 1 -6 -3 -2 -9 3 -6 12 -7 18 -3 8 4 7 1 -1 -9 -11 -14 -11 -21 -1 -40 10
-19 10 -21 -2 -12 -8 5 -20 10 -28 10 -21 -1 -25 -22 -6 -30 9 -3 13 -2 10 3
-12 21 15 20 29 -1 14 -20 14 -24 1 -45 -9 -14 -11 -23 -5 -23 6 0 8 -5 4 -12
-4 -7 -3 -8 4 -4 6 4 9 13 5 21 -3 8 0 15 6 15 21 0 11 -40 -11 -50 -13 -5
-18 -9 -12 -9 7 -1 15 -12 18 -26 4 -14 11 -23 16 -20 6 3 10 -1 10 -10 0 -9
-4 -13 -10 -10 -5 3 -10 1 -10 -5 0 -6 -4 -9 -10 -5 -5 3 -7 12 -4 19 3 8 1
16 -4 20 -10 6 -9 -30 1 -40 13 -13 7 -23 -10 -18 -14 5 -15 4 -4 -4 7 -5 28
-6 47 -2 19 5 32 4 28 -1 -3 -5 -15 -9 -27 -10 -16 0 -18 -2 -7 -7 22 -10 24
-52 2 -52 -14 0 -12 -4 8 -21 18 -15 19 -18 5 -11 -28 13 -49 4 -35 -14 12
-14 6 -34 -11 -34 -6 0 -7 5 -3 12 4 7 3 8 -4 4 -11 -7 -6 -31 11 -53 5 -7 6
-13 1 -13 -5 -1 9 -10 31 -21 22 -11 30 -18 17 -15 -15 3 -22 0 -19 -7 2 -7
16 -11 30 -9 15 2 27 -1 27 -6 0 -16 -30 -22 -49 -10 -15 9 -22 8 -35 -5 -23
-23 -23 -24 -3 -39 15 -11 16 -18 8 -41 -9 -23 -8 -26 7 -24 9 1 19 -2 20 -8
2 -5 8 -18 13 -28 7 -12 6 -17 -3 -15 -8 2 -13 -8 -13 -29 0 -17 -3 -35 -7
-39 -4 -4 -3 -13 3 -20 6 -7 9 -19 6 -26 -2 -7 12 -28 31 -46 19 -18 32 -36
28 -39 -4 -4 -12 -1 -17 7 -8 11 -9 8 -5 -12 4 -16 2 -28 -4 -28 -5 0 -10 5
-10 11 0 5 -4 7 -10 4 -5 -3 -10 -2 -10 4 0 5 5 13 11 17 8 5 6 10 -5 16 -10
6 -21 7 -24 3 -4 -4 -2 -10 5 -12 7 -2 9 -11 6 -19 -3 -7 2 -17 11 -20 9 -3
13 -10 10 -15 -3 -5 -10 -6 -16 -3 -7 4 -8 2 -4 -5 6 -9 11 -9 22 0 17 14 48
4 38 -12 -4 -8 -3 -9 5 -5 6 4 14 0 17 -9 5 -13 8 -14 15 -3 6 9 8 6 7 -9 -2
-20 -28 -22 -28 -2 0 5 -9 9 -21 9 -13 0 -18 4 -13 13 4 6 -2 4 -13 -6 -18
-16 -21 -16 -33 -2 -10 12 -16 13 -29 3 -12 -10 -11 -6 3 17 13 20 15 26 4 18
-8 -7 -17 -10 -20 -8 -3 3 -4 -8 -2 -25 4 -30 -10 -42 -19 -17 -4 8 -6 9 -6 0
-1 -6 6 -19 15 -28 15 -14 14 -15 -11 -11 -24 5 -26 3 -20 -22 4 -22 2 -28
-13 -28 -14 0 -17 6 -14 22 3 16 -2 24 -17 29 -26 8 -37 1 -44 -25 -3 -11 -1
-18 3 -15 5 3 11 1 14 -4 3 -5 -3 -11 -14 -14 -11 -3 -18 -1 -14 4 3 5 1 9 -4
9 -6 0 -13 -8 -16 -17 -6 -14 -9 -15 -15 -4 -5 8 -40 16 -91 20 -64 5 -85 11
-96 26 -17 23 -18 39 -2 29 7 -4 8 -3 4 4 -4 6 -14 8 -24 5 -9 -3 -14 -3 -10
2 4 4 0 14 -10 22 -10 9 -11 12 -2 7 8 -4 5 4 -7 18 -13 13 -23 30 -23 38 0 7
-3 10 -7 6 -10 -9 -45 72 -37 86 4 7 3 8 -4 4 -7 -4 -12 -1 -12 6 0 9 -3 9
-10 -2 -5 -8 -10 -10 -10 -5 0 6 5 16 12 23 9 9 9 12 -3 13 -7 1 -18 1 -24 -1
-5 -1 -1 8 9 19 17 19 17 19 -3 14 -20 -5 -26 5 -22 31 1 4 -3 14 -10 22 -6 8
-9 21 -5 29 3 9 2 13 -4 10 -6 -3 -10 1 -10 10 0 11 5 15 15 11 13 -5 13 -2
-1 19 -9 14 -12 25 -8 25 5 0 3 4 -5 9 -7 5 -10 14 -7 20 4 6 12 8 18 5 7 -5
8 -2 4 5 -6 9 -13 8 -27 -5 -18 -16 -19 -16 -19 5 0 12 4 20 9 17 5 -4 7 3 4
15 -5 18 -3 20 18 15 21 -6 22 -6 5 5 -15 9 -16 13 -5 20 7 4 10 11 6 15 -3 4
-14 1 -23 -7 -16 -13 -16 -12 -6 8 14 26 16 46 3 38 -5 -3 -13 -1 -16 5 -4 6
-1 9 6 8 6 -2 14 3 16 10 3 6 -1 12 -8 12 -7 0 -5 6 7 15 17 13 17 14 2 15
-10 0 -18 5 -18 11 0 5 6 7 13 4 6 -4 2 2 -11 13 -12 11 -17 22 -12 24 6 2 8
17 4 36 -4 22 -11 31 -20 28 -7 -3 -16 -1 -19 4 -4 6 4 10 17 10 l23 1 -23 19
c-19 15 -21 23 -12 39 5 12 15 31 21 42 9 19 8 21 -5 16 -9 -4 -16 -2 -16 3 0
6 8 10 18 11 9 0 12 3 5 5 -7 3 -9 13 -6 22 4 13 2 12 -10 -3 -13 -15 -17 -17
-17 -5 -1 8 -4 26 -6 40 -4 23 -4 23 9 6 12 -17 14 -17 28 0 8 11 9 15 2 10
-8 -4 -13 -1 -13 9 0 9 -4 14 -9 11 -5 -3 -11 1 -14 9 -4 9 -1 12 7 9 8 -3 17
0 22 7 4 8 3 10 -4 5 -7 -4 -12 -3 -12 3 0 5 -6 11 -12 14 -7 2 -5 3 5 2 17
-3 19 1 20 43 0 18 3 20 13 11 11 -9 14 -8 14 5 0 9 -6 16 -14 16 -8 0 -17 4
-21 9 -3 6 6 6 25 1 17 -5 28 -5 25 0 -3 4 0 10 7 12 7 3 5 7 -6 11 -10 4 -15
3 -11 -3 3 -6 1 -10 -4 -10 -16 0 -13 26 4 40 8 7 15 20 16 29 0 9 3 11 5 4 8
-18 55 6 52 26 -4 27 11 44 28 30 19 -15 18 -2 -1 17 -17 17 -21 39 -5 29 5
-3 7 9 4 32 -4 37 -4 37 11 15 9 -12 13 -27 10 -32 -3 -6 -1 -10 4 -10 6 0 11
-4 11 -10 0 -5 -7 -7 -15 -4 -11 5 -13 2 -9 -10 3 -9 10 -16 14 -16 5 0 7 -9
5 -20 -5 -26 15 -37 22 -12 3 12 11 18 19 15 11 -4 11 -9 -2 -28 -16 -25 -12
-45 9 -45 8 0 8 3 -2 9 -9 6 -10 11 -2 15 6 4 9 11 6 16 -3 4 1 13 9 19 8 7
12 20 9 30 -3 10 -1 21 4 24 5 3 9 -10 9 -29 0 -19 -5 -34 -10 -34 -6 0 0 -7
12 -16 17 -11 21 -22 16 -37 -6 -21 -6 -22 9 -2 16 21 12 49 -7 38 -6 -4 -5 1
3 10 7 9 17 15 21 12 6 -4 10 18 14 87 1 23 3 25 21 16 20 -11 20 -11 1 11
-11 11 -15 21 -10 21 5 0 2 5 -6 10 -9 6 -10 10 -3 10 6 0 18 -7 27 -15 8 -8
22 -15 30 -15 9 0 16 -3 16 -8 0 -4 10 -13 23 -21 20 -13 21 -13 8 2 -15 19
-2 24 16 6 8 -8 13 -8 18 0 3 6 3 11 -2 10 -20 -4 -23 2 -8 17 9 9 13 19 10
23 -4 3 -12 -2 -19 -12 -15 -19 -26 -22 -26 -7 0 5 12 16 28 24 23 13 24 15 7
16 -15 1 -16 3 -5 7 16 6 30 23 30 36 0 5 -6 5 -12 2 -7 -4 -5 0 5 8 20 17 22
28 5 23 -7 -1 -9 -1 -5 2 4 2 2 11 -5 20 -12 13 -10 14 10 3 26 -14 29 -4 5
16 -16 13 -16 13 5 3 12 -6 22 -17 22 -25 0 -8 5 -15 12 -15 6 0 8 3 5 7 -4 3
1 12 11 20 16 12 16 13 -2 6 -14 -5 -17 -3 -11 7 6 9 4 11 -5 5 -10 -6 -12 -4
-7 7 4 12 1 14 -14 11 -26 -7 -24 11 4 26 12 6 14 10 5 7 -9 -3 -19 2 -22 10
-3 9 1 14 12 14 15 0 15 2 2 10 -13 8 -12 10 3 10 10 0 15 5 11 11 -3 6 -17 8
-30 5 -14 -4 -24 -2 -24 4 0 6 4 9 9 6 4 -3 16 3 26 14 18 19 17 20 -6 21 -24
2 -24 2 -1 6 12 2 20 9 17 14 -3 5 1 6 10 3 9 -4 14 -13 10 -22z m196 -29
c-12 -20 -14 -14 -5 12 4 9 9 14 11 11 3 -2 0 -13 -6 -23z m-108 2 c-3 -9 -8
-14 -10 -11 -3 3 -2 9 2 15 9 16 15 13 8 -4z m-33 -9 c0 -11 -19 -15 -25 -6
-3 5 1 10 9 10 9 0 16 -2 16 -4z m-1150 -26 c0 -5 -2 -10 -4 -10 -3 0 -8 5
-11 10 -3 6 -1 10 4 10 6 0 11 -4 11 -10z m2230 -10 c0 -5 -5 -10 -11 -10 -5
0 -7 5 -4 10 3 6 8 10 11 10 2 0 4 -4 4 -10z m-1010 -11 c0 -5 5 -7 12 -3 7 4
8 3 4 -4 -4 -6 -13 -9 -21 -5 -17 6 -20 23 -5 23 6 0 10 -5 10 -11z m-183 -51
c-3 -8 -6 -5 -6 6 -1 11 2 17 5 13 3 -3 4 -12 1 -19z m-341 -34 c-19 -18 -26
-18 -26 2 0 8 5 12 10 9 6 -3 10 -1 10 5 0 6 5 8 10 5 6 -4 5 -12 -4 -21z
m174 -14 c0 -5 -2 -10 -4 -10 -3 0 -8 5 -11 10 -3 6 -1 10 4 10 6 0 11 -4 11
-10z m328 -2 c-2 -7 2 -12 8 -11 6 1 11 -5 11 -13 0 -12 -4 -11 -18 2 -10 9
-16 21 -13 25 8 13 14 11 12 -3z m45 -13 c-3 -9 -8 -14 -10 -11 -3 3 -2 9 2
15 9 16 15 13 8 -4z m59 -13 c-7 -2 -9 -9 -5 -15 4 -7 -1 -6 -10 2 -24 19 -21
30 5 23 12 -3 17 -7 10 -10z m-762 -62 c0 -5 -2 -10 -4 -10 -3 0 -8 5 -11 10
-3 6 -1 10 4 10 6 0 11 -4 11 -10z m720 -11 c0 -14 -27 -10 -33 5 -4 10 0 12
14 9 10 -3 19 -9 19 -14z m-540 -4 c0 -2 -7 -8 -15 -15 -12 -10 -15 -10 -15 2
0 8 7 15 15 15 8 0 15 -1 15 -2z m538 -37 c-3 -7 -12 -14 -21 -16 -12 -2 -15
1 -11 12 7 19 38 22 32 4z m-573 -8 c3 -6 -1 -7 -9 -4 -18 7 -21 14 -7 14 6 0
13 -4 16 -10z m720 -10 c3 -5 1 -10 -4 -10 -6 0 -11 5 -11 10 0 6 2 10 4 10 3
0 8 -4 11 -10z m985 0 c0 -5 -5 -10 -11 -10 -5 0 -7 5 -4 10 3 6 8 10 11 10 2
0 4 -4 4 -10z m-1596 -41 c-9 -16 -24 -9 -17 8 4 11 3 14 -5 9 -7 -4 -12 -1
-12 10 0 16 1 16 20 -1 11 -10 17 -22 14 -26z m36 31 c0 -5 -2 -10 -4 -10 -3
0 -8 5 -11 10 -3 6 -1 10 4 10 6 0 11 -4 11 -10z m-224 -8 c-2 -4 -65 -8 -138
-9 -106 0 -119 1 -63 7 104 10 207 11 201 2z m104 0 c0 -13 -12 -22 -22 -16
-10 6 -1 24 13 24 5 0 9 -4 9 -8z m174 -24 c-5 -7 -9 -21 -9 -31 -1 -10 -6
-22 -11 -27 -14 -14 -17 40 -3 56 14 17 33 18 23 2z m408 -10 c-7 -7 -12 -8
-12 -2 0 14 12 26 19 19 2 -3 -1 -11 -7 -17z m-32 8 c0 -3 -4 -8 -10 -11 -5
-3 -10 -1 -10 4 0 6 5 11 10 11 6 0 10 -2 10 -4z m-606 -38 c-11 -18 16 -6 29
13 9 13 17 16 22 10 9 -15 -4 -33 -17 -25 -7 5 -9 0 -6 -14 3 -12 1 -26 -6
-31 -13 -11 -63 -8 -74 4 -4 4 0 6 8 3 8 -3 20 1 27 8 20 19 15 26 -8 13 -13
-7 -19 -7 -15 -1 3 6 2 13 -4 17 -5 3 -10 11 -10 18 0 6 6 3 13 -8 16 -21 39
-12 31 13 -5 14 -4 14 4 2 6 -8 8 -18 6 -22z m1259 8 c4 -10 1 -13 -9 -9 -15
6 -19 23 -5 23 5 0 11 -7 14 -14z m-573 -16 c0 -4 -6 -10 -14 -13 -10 -4 -12
0 -9 14 5 18 23 18 23 -1z m345 -19 c-3 -6 -11 -11 -16 -11 -5 0 -4 6 3 14 14
16 24 13 13 -3z m-449 -120 c-4 -5 -1 -12 4 -14 6 -3 5 -4 -2 -3 -15 3 -23 26
-8 26 6 0 9 -4 6 -9z m549 -1 c3 -5 1 -10 -4 -10 -6 0 -11 5 -11 10 0 6 2 10
4 10 3 0 8 -4 11 -10z m-1214 -53 c-10 -9 -11 -8 -5 6 3 10 9 15 12 12 3 -3 0
-11 -7 -18z m-46 -7 c3 -5 1 -10 -4 -10 -6 0 -11 5 -11 10 0 6 2 10 4 10 3 0
8 -4 11 -10z m1175 0 c0 -5 -2 -10 -4 -10 -3 0 -8 5 -11 10 -3 6 -1 10 4 10 6
0 11 -4 11 -10z m-390 -21 c0 -5 -4 -9 -10 -9 -5 0 -10 7 -10 16 0 8 5 12 10
9 6 -3 10 -10 10 -16z m-45 -48 c3 -5 2 -12 -3 -15 -5 -3 -9 1 -9 9 0 17 3 19
12 6z m35 -1 c0 -5 -4 -10 -10 -10 -5 0 -10 5 -10 10 0 6 5 10 10 10 6 0 10
-4 10 -10z m360 -70 c0 -5 -2 -10 -4 -10 -3 0 -8 5 -11 10 -3 6 -1 10 4 10 6
0 11 -4 11 -10z m40 -6 c0 -8 -19 -13 -24 -6 -3 5 1 9 9 9 8 0 15 -2 15 -3z
m-270 -54 c0 -5 -4 -10 -10 -10 -5 0 -10 5 -10 10 0 6 5 10 10 10 6 0 10 -4
10 -10z m320 -15 c0 -8 -4 -15 -10 -15 -5 0 -10 7 -10 15 0 8 5 15 10 15 6 0
10 -7 10 -15z m-170 -25 c0 -5 -5 -10 -11 -10 -5 0 -7 5 -4 10 3 6 8 10 11 10
2 0 4 -4 4 -10z m64 -60 c-6 -6 -10 -3 -10 10 0 13 4 16 10 10 7 -7 7 -13 0
-20z m-27 -2 c2 -17 0 -19 -7 -8 -5 8 -6 18 -4 22 8 12 10 10 11 -14z m-1013
-43 c3 -8 1 -15 -4 -15 -6 0 -10 7 -10 15 0 8 2 15 4 15 2 0 6 -7 10 -15z
m1010 -18 c25 -23 25 -37 2 -37 -6 0 -5 4 3 9 11 7 9 10 -7 15 -11 4 -23 13
-26 21 -8 21 -1 19 28 -8z m69 -1 c4 -10 0 -12 -15 -8 -15 4 -17 7 -6 13 17
11 15 11 21 -5z m-118 -34 c-3 -3 -11 0 -18 7 -9 10 -8 11 6 5 10 -3 15 -9 12
-12z m118 -56 c4 -10 1 -13 -9 -9 -15 6 -19 23 -5 23 5 0 11 -7 14 -14z m-370
-51 c-8 -22 -22 -18 -16 5 3 11 9 17 14 15 4 -3 6 -12 2 -20z m-693 -15 c0 -5
-5 -10 -11 -10 -5 0 -7 5 -4 10 3 6 8 10 11 10 2 0 4 -4 4 -10z m760 -26 c0
-9 -5 -12 -12 -8 -8 5 -9 2 -5 -9 3 -9 1 -19 -5 -23 -7 -4 -8 -3 -4 4 4 7 2
12 -5 12 -7 0 -5 8 6 20 22 24 25 25 25 4z m113 -15 c11 8 17 9 22 1 4 -6 3
-10 -2 -9 -4 1 -16 -1 -25 -5 -21 -9 -48 -1 -48 14 0 6 7 6 19 -2 15 -9 23 -9
34 1z m-55 -37 c2 -7 -5 -12 -17 -12 -14 0 -19 5 -14 15 6 17 25 15 31 -3z
m59 -7 c0 -8 -4 -12 -9 -9 -5 3 -6 10 -3 15 9 13 12 11 12 -6z m-212 -15 c3
-6 -1 -7 -9 -4 -18 7 -21 14 -7 14 6 0 13 -4 16 -10z m85 -11 c0 -5 -4 -8 -9
-5 -5 4 -12 0 -14 -6 -3 -8 -6 -6 -6 5 -1 9 6 17 14 17 8 0 15 -5 15 -11z m60
7 c0 -3 -4 -8 -10 -11 -5 -3 -10 -1 -10 4 0 6 5 11 10 11 6 0 10 -2 10 -4z
m-109 -39 c-10 -9 -11 -8 -5 6 3 10 9 15 12 12 3 -3 0 -11 -7 -18z m129 16
c-8 -3 -22 -11 -30 -17 -13 -10 -13 -9 -1 7 7 9 21 17 30 16 13 0 14 -1 1 -6z
m-800 -33 c0 -5 -4 -10 -10 -10 -5 0 -10 5 -10 10 0 6 5 10 10 10 6 0 10 -4
10 -10z m671 -27 c-8 -15 -10 -15 -11 -2 0 17 10 32 18 25 2 -3 -1 -13 -7 -23z
m74 -19 c9 -15 12 -24 7 -20 -6 3 -13 -2 -16 -11 -4 -15 -5 -15 -4 2 1 38 -2
46 -14 39 -7 -4 -8 -3 -4 4 10 16 11 16 31 -14z m79 -9 c3 -8 1 -15 -4 -15 -6
0 -10 7 -10 15 0 8 2 15 4 15 2 0 6 -7 10 -15z m-154 -5 c0 -5 -2 -10 -4 -10
-3 0 -8 5 -11 10 -3 6 -1 10 4 10 6 0 11 -4 11 -10z m743 -9 c-2 -6 4 -11 12
-11 8 0 15 5 15 11 0 5 5 7 11 4 6 -4 8 -13 5 -20 -3 -8 0 -16 7 -19 7 -2 4
-5 -5 -5 -10 -1 -18 4 -18 11 0 6 -3 9 -6 5 -10 -9 7 -48 18 -41 6 4 8 -1 3
-15 -4 -12 -2 -28 5 -36 8 -9 8 -15 0 -20 -8 -5 -6 -14 4 -31 13 -19 13 -22 2
-18 -15 6 -17 -26 -2 -37 11 -8 -2 -31 -14 -24 -7 4 -20 -17 -19 -31 0 -4 -5
-11 -13 -15 -9 -6 -9 -9 -1 -9 7 0 17 8 22 18 9 15 10 16 11 0 0 -17 -33 -33
-49 -23 -5 3 -13 0 -17 -6 -4 -8 -3 -9 4 -5 7 4 12 2 12 -4 0 -6 5 -8 10 -5
18 11 11 -22 -7 -36 -16 -13 -17 -12 -4 4 12 15 12 17 -3 11 -18 -7 -22 -34
-4 -34 6 0 9 -2 6 -5 -11 -12 -37 7 -31 22 4 9 2 14 -3 11 -5 -4 -10 6 -11 20
-1 15 -4 36 -6 47 -3 11 -6 30 -6 42 -1 12 -9 29 -18 39 -13 13 -14 19 -5 22
6 2 12 8 12 13 0 6 -4 7 -10 4 -12 -8 -13 5 0 25 5 9 5 19 -1 26 -8 9 -5 11
10 7 16 -4 19 -1 16 16 -2 12 1 21 6 21 6 0 7 5 4 10 -3 6 2 11 12 11 17 1 17
2 1 6 -10 2 -18 9 -18 15 0 5 7 8 14 5 11 -4 13 -1 9 11 -6 15 -5 16 12 2 17
-14 17 -13 10 9 -5 17 -4 22 6 18 8 -2 13 -10 12 -16z m-636 -15 c0 -8 -6 -12
-15 -9 -11 5 -11 7 0 14 7 5 13 9 14 9 0 0 1 -6 1 -14z m-57 -21 c0 -2 -17 -3
-37 -3 -28 0 -33 2 -18 8 17 6 55 3 55 -5z m40 -25 c0 -5 -2 -10 -4 -10 -3 0
-8 5 -11 10 -3 6 -1 10 4 10 6 0 11 -4 11 -10z m-30 -26 c0 -8 -19 -13 -24 -6
-3 5 1 9 9 9 8 0 15 -2 15 -3z m55 -16 c-5 -26 -26 -41 -39 -28 -13 13 -29 13
-21 1 3 -5 1 -12 -4 -15 -10 -7 -41 31 -41 49 0 5 5 2 11 -8 8 -13 14 -15 29
-7 13 7 19 6 24 -6 5 -12 8 -13 20 -2 8 7 14 15 14 18 -1 11 2 20 6 20 3 0 3
-10 1 -22z m-96 -28 c12 -17 27 -28 34 -25 7 4 5 0 -4 -7 -14 -11 -15 -17 -4
-31 6 -9 14 -14 17 -11 4 3 9 0 14 -7 4 -8 3 -10 -4 -5 -7 4 -12 2 -12 -3 0
-6 7 -11 15 -11 20 0 19 -14 -2 -31 -15 -12 -16 -12 -10 5 7 17 6 17 -10 5
-14 -12 -16 -12 -8 0 6 11 4 13 -11 7 -18 -7 -18 -6 -2 10 15 16 15 18 -3 38
-11 11 -18 29 -15 38 2 11 -1 18 -10 18 -8 0 -14 -6 -15 -12 0 -7 -4 -4 -8 7
-9 21 -4 45 8 45 4 0 17 -14 30 -30z m77 -31 c11 -18 -14 -35 -28 -20 -11 12
-10 13 6 7 16 -5 17 -4 6 9 -8 9 -8 15 -2 15 6 0 14 -5 18 -11z m-664 -46 c-8
-11 -16 -4 -18 17 -4 23 -3 24 8 5 6 -11 11 -21 10 -22z m1438 -133 c0 -5 -5
-10 -11 -10 -5 0 -7 5 -4 10 3 6 8 10 11 10 2 0 4 -4 4 -10z m-1066 -15 c3 -8
1 -15 -4 -15 -6 0 -10 7 -10 15 0 8 2 15 4 15 2 0 6 -7 10 -15z m236 -5 c0 -5
-4 -10 -10 -10 -5 0 -10 5 -10 10 0 6 5 10 10 10 6 0 10 -4 10 -10z m-294 -99
c-4 -5 0 -11 6 -14 7 -2 -3 -3 -22 -2 -19 1 -39 -2 -45 -5 -5 -4 -19 -3 -30 1
-18 9 -18 9 2 5 13 -2 26 0 29 5 3 5 10 7 15 4 5 -4 17 -1 26 4 23 13 26 13
19 2z m299 -785 c35 -17 54 -22 67 -15 10 6 19 5 23 -1 4 -6 10 -8 14 -6 4 3
15 -8 25 -25 9 -16 21 -27 26 -24 5 3 14 -10 21 -30 9 -25 16 -32 25 -24 6 5
18 7 27 3 12 -4 14 -1 10 17 -6 20 -3 21 22 15 43 -11 97 -39 108 -57 8 -13
-2 -33 -49 -94 -32 -42 -68 -90 -80 -106 -14 -20 -24 -25 -31 -18 -19 19 -106
-39 -136 -90 -17 -29 -17 -31 -1 -31 19 0 133 38 149 50 6 4 23 10 40 14 38
10 55 24 55 47 0 30 59 35 115 10 62 -27 89 -28 55 -1 l-25 20 23 0 c13 0 21
4 18 9 -3 5 7 17 22 26 15 10 31 24 35 32 12 20 29 16 74 -17 40 -29 41 -30
82 -15 23 8 72 18 109 21 84 9 119 21 104 36 -6 6 -8 17 -5 24 3 9 -1 14 -11
14 -13 0 -10 6 11 25 l28 25 -34 -7 c-25 -4 -32 -3 -27 5 4 7 15 12 24 12 16
1 62 33 62 44 0 2 -12 -2 -27 -10 -16 -7 -37 -14 -48 -14 -15 1 -11 6 15 20
19 11 43 19 52 20 9 0 39 13 65 28 52 30 101 47 178 61 28 5 64 15 81 22 86
35 83 -45 -3 -90 -28 -14 -164 -43 -171 -36 -3 3 -1 5 5 5 5 0 10 6 10 14 0 8
-6 12 -14 9 -7 -3 -13 -9 -13 -13 0 -19 -34 -40 -65 -40 -49 0 -52 -17 -5 -25
l40 -7 -20 -38 c-11 -22 -20 -45 -20 -52 0 -7 -13 -24 -30 -38 -16 -14 -30
-30 -30 -36 0 -7 14 -27 32 -45 17 -19 28 -28 24 -21 -4 6 -2 12 3 12 6 0 11
-5 11 -11 0 -6 7 -9 15 -5 17 6 118 -10 152 -24 37 -16 7 -67 -57 -100 -56
-28 -231 -88 -275 -94 -106 -15 -128 -15 -148 -4 -12 7 -41 13 -65 14 -23 0
-45 4 -49 8 -3 3 -13 6 -22 5 -12 0 -11 -3 4 -9 14 -6 6 -8 -28 -6 -26 1 -53
9 -60 16 -10 12 -9 12 6 1 15 -12 21 -9 19 10 -1 3 13 5 29 4 57 -3 13 14 -51
20 -36 4 -71 8 -77 10 -7 3 -13 1 -13 -3 0 -4 -32 -7 -70 -7 -38 0 -70 -4 -70
-8 0 -4 -63 -7 -140 -6 -80 0 -138 5 -134 10 3 5 12 9 21 9 21 0 9 13 -15 15
-9 1 -29 5 -44 9 -15 5 -35 3 -47 -3 -30 -17 -176 -27 -167 -12 4 6 16 11 26
11 10 0 21 4 25 9 3 5 30 13 60 16 30 4 55 11 55 14 0 9 -50 57 -56 54 -2 -2
-11 -3 -20 -3 -10 0 -13 6 -9 18 4 15 -8 28 -57 59 -90 57 -96 60 -66 27 l27
-29 -24 -50 c-13 -28 -25 -56 -25 -63 0 -7 -4 -10 -10 -7 -5 3 -10 -3 -10 -14
0 -19 -6 -21 -57 -20 -35 1 -70 8 -88 18 -22 13 -35 15 -46 8 -9 -6 -24 -7
-35 -2 -11 4 -27 7 -38 6 -11 -2 -16 2 -12 8 5 8 -20 11 -81 11 -91 0 -135 12
-98 26 16 7 14 9 -16 19 -22 8 -42 9 -59 3 -43 -16 -211 -19 -334 -6 -115 13
-153 28 -106 43 11 3 18 11 14 16 -3 5 8 12 25 15 17 4 28 11 25 16 -4 5 4 9
17 7 13 -1 35 1 49 4 14 3 42 9 63 12 21 3 35 10 32 16 -8 11 12 19 57 23 18
2 32 7 31 12 0 5 5 15 13 22 8 7 14 9 14 4 0 -5 7 -9 15 -9 11 0 12 4 5 11
-16 16 -12 25 12 18 14 -3 19 -2 14 6 -9 15 26 16 41 1 7 -7 9 -3 6 15 -3 16
-1 26 6 26 7 0 10 -4 6 -9 -3 -5 -1 -12 5 -16 5 -3 10 1 10 9 0 9 4 16 10 16
5 0 7 -6 4 -14 -3 -8 0 -17 7 -22 7 -4 10 -3 6 3 -4 6 0 13 8 17 9 3 15 0 15
-9 0 -8 5 -15 11 -15 6 0 9 6 6 13 -3 8 4 14 19 15 13 1 24 -3 24 -8 0 -5 -7
-6 -17 -3 -10 4 -14 2 -10 -4 4 -6 19 -15 34 -21 25 -8 28 -7 28 14 0 13 -4
24 -8 24 -5 0 -1 7 8 17 16 15 16 17 0 26 -12 6 -20 5 -25 -4 -7 -10 -16 -10
-47 -1 -21 6 -47 13 -58 15 l-20 4 20 7 c11 4 28 12 37 17 23 12 89 11 107 0
10 -7 24 -2 44 15 37 31 84 31 146 -1 42 -21 106 -85 85 -85 -3 0 -1 -6 5 -13
8 -10 8 -22 -1 -43 -9 -25 -8 -35 8 -59 18 -29 19 -29 22 -7 2 13 -1 37 -7 53
-6 16 -6 27 -1 24 5 -3 21 12 36 32 15 21 38 49 51 63 l23 26 -69 -4 c-38 -2
-77 0 -87 6 -16 9 -12 12 24 21 23 7 81 14 130 16 98 5 130 15 180 57 18 15
34 28 35 28 1 0 24 -11 52 -24z m965 4 c0 -5 -2 -10 -4 -10 -3 0 -8 5 -11 10
-3 6 -1 10 4 10 6 0 11 -4 11 -10z m600 -10 c0 -5 -5 -10 -11 -10 -5 0 -7 5
-4 10 3 6 8 10 11 10 2 0 4 -4 4 -10z m-932 -17 c-3 -16 -48 -27 -48 -11 0 4
5 8 11 8 5 0 7 5 4 10 -3 6 3 10 15 10 15 0 20 -5 18 -17z m162 -6 c0 -19 -39
-39 -61 -32 -19 7 -20 8 -3 26 19 21 64 26 64 6z m-233 -32 c-18 -17 -45 -23
-48 -10 -2 12 42 36 53 29 4 -3 2 -11 -5 -19z m373 -25 c-24 -15 -31 -11 -18
10 9 13 16 16 23 9 7 -7 5 -13 -5 -19z m-80 -44 c0 -2 -7 -7 -16 -10 -8 -3
-12 -2 -9 4 6 10 25 14 25 6z m610 -25 c0 -23 -21 -31 -72 -29 -44 1 -43 1
-22 23 12 11 20 13 29 5 9 -8 14 -6 19 5 8 23 46 19 46 -4z m-325 -33 c-7 -18
-18 -34 -24 -36 -6 -2 -11 -9 -11 -15 0 -6 -10 -21 -21 -34 -18 -18 -20 -25
-10 -37 13 -16 12 -16 -61 -31 -26 -5 -22 3 21 46 21 21 44 54 51 71 16 39 50
79 61 72 4 -2 2 -19 -6 -36z m409 3 c3 -4 -4 -17 -15 -27 -11 -10 -17 -24 -15
-31 3 -8 -3 -14 -17 -15 -12 0 -29 -2 -37 -3 -30 -3 -32 8 -4 21 21 9 24 13
12 14 -10 2 -22 4 -28 5 -5 1 -13 3 -17 4 -5 1 3 8 17 15 16 10 30 11 42 5 9
-5 23 -9 30 -8 10 0 10 2 -1 6 -11 5 -11 7 0 14 18 11 26 11 33 0z m-249 -101
c0 -14 -9 -16 -59 -12 -15 2 -16 4 -6 18 16 19 65 15 65 -6z m115 -7 c0 -21
-20 -55 -20 -35 0 6 -6 12 -14 12 -7 0 -16 9 -19 20 -4 17 0 20 24 20 21 0 29
-5 29 -17z m-2611 -2 c28 -18 -1 -31 -70 -31 -74 0 -84 12 -26 29 42 12 79 13
96 2z m2494 -47 c-4 -13 -26 -11 -30 3 -2 6 4 10 14 9 10 -2 17 -7 16 -12z
m-29 -39 c3 -8 2 -15 -3 -15 -5 0 -14 7 -21 15 -10 12 -10 15 3 15 8 0 17 -7
21 -15z m-1489 -25 c3 -5 1 -10 -4 -10 -6 0 -11 5 -11 10 0 6 2 10 4 10 3 0 8
-4 11 -10z m-817 -175 c-3 -3 -9 2 -12 12 -6 14 -5 15 5 6 7 -7 10 -15 7 -18z
m512 5 c13 -9 13 -10 0 -10 -8 0 -22 5 -30 10 -13 9 -13 10 0 10 8 0 22 -5 30
-10z m1832 -59 c36 -14 68 -46 68 -69 0 -22 -24 -30 -72 -23 -31 4 -35 13 -14
34 20 20 -11 37 -71 38 -46 1 -46 1 -15 9 35 8 54 20 32 20 -7 0 -3 9 11 20
l23 21 8 -21 c4 -11 18 -24 30 -29z m-1792 17 c0 -5 -9 -4 -20 2 -11 6 -20 12
-20 14 0 2 9 2 20 -1 11 -3 20 -9 20 -15z m1585 -18 c28 -7 26 -7 -15 -9 -25
0 -52 -1 -60 -2 -39 -2 -90 5 -90 12 0 17 98 16 165 -1z m-259 -131 c16 -5 49
-12 74 -14 25 -3 57 -8 73 -11 22 -5 27 -2 27 15 0 19 5 20 99 17 152 -6 160
-20 35 -61 -47 -15 -88 -34 -91 -41 -3 -8 -11 -14 -17 -14 -7 0 -18 -11 -24
-25 -20 -43 -130 -76 -255 -78 -68 -1 -76 1 -141 41 -45 27 -82 42 -105 43
-20 0 -66 1 -104 1 -37 1 -70 4 -72 8 -3 4 23 13 58 20 34 7 69 15 77 17 8 2
39 6 68 8 29 2 60 9 68 15 8 7 14 10 14 7 0 -3 19 1 43 8 30 9 43 18 45 34 3
18 10 21 52 21 27 0 61 -5 76 -11z m-786 -55 c72 4 81 3 62 -8 -12 -6 -20 -15
-17 -19 3 -4 2 -5 -1 -3 -8 6 -66 -15 -60 -21 5 -6 57 -18 134 -32 33 -6 45
-5 49 5 9 23 33 16 33 -9 0 -26 33 -71 44 -60 3 3 6 -2 6 -13 0 -11 14 -31 30
-46 17 -14 30 -22 30 -17 0 6 5 7 10 4 6 -3 10 -15 10 -26 0 -23 -55 -50 -110
-54 -19 -1 -40 -3 -46 -4 -17 -2 -84 -70 -84 -86 0 -21 -29 -45 -56 -45 -13 0
-32 -4 -42 -9 -77 -42 -101 -42 -141 -2 -12 12 -27 21 -35 21 -8 0 -18 9 -21
20 -7 21 -26 24 -60 11 -45 -18 -107 26 -141 101 -16 35 -16 39 0 63 9 14 35
36 57 50 22 14 42 32 46 40 3 8 11 15 19 15 8 0 14 5 14 11 0 5 4 8 8 5 5 -3
21 6 38 19 l29 24 -25 2 c-14 1 -29 2 -35 4 -5 1 -19 3 -30 4 l-20 2 20 9 c13
6 15 9 5 9 -27 2 12 21 45 22 29 1 29 1 5 9 -25 7 -25 7 5 11 17 2 55 0 85 -4
30 -5 93 -6 140 -3z m-480 -14 c0 -5 -10 -10 -22 -10 -12 0 -18 -3 -14 -7 4
-5 8 -6 9 -3 1 2 20 -5 42 -17 22 -12 55 -25 74 -30 33 -8 33 -8 15 -30 -11
-12 -26 -23 -34 -25 -25 -5 -67 -58 -111 -140 -55 -102 -77 -122 -123 -114
-54 10 -104 96 -92 158 3 18 6 37 6 41 -1 4 9 16 22 27 13 10 20 21 16 25 -3
4 -75 8 -158 10 -177 4 -222 20 -57 20 93 0 124 4 182 25 64 22 112 50 86 50
-6 0 -11 7 -11 15 0 12 16 15 85 15 50 0 85 -4 85 -10z"/>
<path d="M1105 3820 c-3 -6 1 -7 9 -4 18 7 21 14 7 14 -6 0 -13 -4 -16 -10z"/>
<path d="M1196 3811 c-3 -5 1 -11 9 -14 9 -4 12 -1 8 9 -6 16 -10 17 -17 5z"/>
<path d="M980 3711 c0 -7 -7 -19 -15 -27 -8 -9 -15 -20 -15 -27 0 -6 7 -2 15
9 8 11 15 14 15 7 0 -19 17 -16 24 4 4 9 0 23 -9 32 -11 11 -15 12 -15 2z m20
-21 c0 -5 -5 -10 -11 -10 -5 0 -7 5 -4 10 3 6 8 10 11 10 2 0 4 -4 4 -10z"/>
<path d="M1036 3665 c4 -8 8 -15 10 -15 2 0 4 7 4 15 0 8 -4 15 -10 15 -5 0
-7 -7 -4 -15z"/>
<path d="M1038 3623 c6 -2 18 -2 25 0 6 3 1 5 -13 5 -14 0 -19 -2 -12 -5z"/>
<path d="M750 3611 c0 -5 5 -13 10 -16 6 -3 10 -2 10 4 0 5 -4 13 -10 16 -5 3
-10 2 -10 -4z"/>
<path d="M774 3568 c-4 -7 -4 -10 1 -6 4 4 14 3 22 -4 11 -8 12 -7 7 6 -7 19
-20 21 -30 4z"/>
<path d="M736 3552 c-8 -13 8 -32 21 -24 8 5 7 11 -3 19 -7 7 -15 9 -18 5z"/>
<path d="M905 3520 c-3 -5 -1 -10 4 -10 6 0 11 5 11 10 0 6 -2 10 -4 10 -3 0
-8 -4 -11 -10z"/>
<path d="M845 3480 c-3 -5 -1 -10 4 -10 6 0 11 5 11 10 0 6 -2 10 -4 10 -3 0
-8 -4 -11 -10z"/>
<path d="M1233 3420 c-1 -11 2 -22 6 -24 4 -3 7 4 8 14 1 11 -2 22 -6 24 -4 3
-7 -4 -8 -14z"/>
<path d="M864 3388 c-4 -6 -3 -8 4 -4 5 3 13 0 15 -6 3 -8 6 -6 6 5 1 19 -14
23 -25 5z"/>
<path d="M1255 3179 c-4 -6 -5 -12 -2 -15 2 -3 7 2 10 11 7 17 1 20 -8 4z"/>
<path d="M640 3166 c0 -8 7 -17 16 -20 13 -5 14 -4 6 7 -7 8 -9 17 -5 20 3 4
1 7 -5 7 -7 0 -12 -6 -12 -14z"/>
<path d="M1277 3056 c-12 -10 -15 -16 -7 -21 8 -5 8 -10 0 -20 -9 -11 -7 -12
9 -8 12 3 19 9 16 13 -3 5 -1 11 5 15 12 7 14 35 3 35 -5 0 -16 -7 -26 -14z"/>
<path d="M1270 2859 c0 -5 5 -7 10 -4 6 3 10 8 10 11 0 2 -4 4 -10 4 -5 0 -10
-5 -10 -11z"/>
<path d="M1300 2701 c0 -5 5 -13 10 -16 6 -3 10 -2 10 4 0 5 -4 13 -10 16 -5
3 -10 2 -10 -4z"/>
<path d="M715 2690 c-3 -5 -1 -10 4 -10 6 0 11 5 11 10 0 6 -2 10 -4 10 -3 0
-8 -4 -11 -10z"/>
<path d="M1295 2620 c-3 -5 -1 -10 4 -10 6 0 11 5 11 10 0 6 -2 10 -4 10 -3 0
-8 -4 -11 -10z"/>
<path d="M490 1190 c0 -5 5 -10 11 -10 5 0 7 5 4 10 -3 6 -8 10 -11 10 -2 0
-4 -4 -4 -10z"/>
<path d="M685 1180 c4 -6 11 -8 16 -5 14 9 11 15 -7 15 -8 0 -12 -5 -9 -10z"/>
<path d="M1980 1130 c0 -5 5 -10 11 -10 5 0 7 5 4 10 -3 6 -8 10 -11 10 -2 0
-4 -4 -4 -10z"/>
<path d="M2410 1012 c0 -5 7 -15 15 -22 8 -7 15 -8 15 -2 0 5 -7 15 -15 22 -8
7 -15 8 -15 2z"/>
<path d="M3010 1321 c0 -5 5 -13 10 -16 6 -3 10 -2 10 4 0 5 -4 13 -10 16 -5
3 -10 2 -10 -4z"/>
<path d="M2878 1123 c7 -3 16 -2 19 1 4 3 -2 6 -13 5 -11 0 -14 -3 -6 -6z"/>
<path d="M3045 1100 c-4 -6 9 -10 31 -10 42 0 42 4 2 14 -15 3 -30 2 -33 -4z"/>
</g>
</svg>
