<?xml version="1.0" standalone="no"?>
<!DOCTYPE svg PUBLIC "-//W3C//DTD SVG 20010904//EN"
 "http://www.w3.org/TR/2001/REC-SVG-20010904/DTD/svg10.dtd">
<svg version="1.0" xmlns="http://www.w3.org/2000/svg"
 width="264.000000pt" height="416.000000pt" viewBox="0 0 264.000000 416.000000"
 preserveAspectRatio="xMidYMid meet">

<g transform="translate(0.000000,416.000000) scale(0.100000,-0.100000)"
fill="#000000" stroke="none">
<path d="M902 1272 c-9 -27 -8 -29 9 -25 26 7 29 15 14 36 -12 16 -14 15 -23
-11z"/>
<path d="M752 907 c-31 -33 -29 -51 6 -42 15 5 38 9 52 11 14 1 26 3 28 3 5 1
-55 51 -60 51 -3 0 -14 -10 -26 -23z"/>
<path d="M490 892 c0 -5 -9 -19 -20 -32 -22 -25 -25 -36 -11 -44 5 -4 5 -23
-1 -47 -8 -28 -14 -37 -21 -30 -13 13 -37 15 -37 4 0 -11 54 -35 57 -26 2 5
22 7 46 5 58 -4 74 8 58 45 -9 22 -18 28 -41 28 -43 0 -41 19 3 23 20 2 37 7
37 13 0 5 -5 9 -11 9 -5 0 -8 4 -5 9 3 5 -1 11 -9 15 -8 3 -15 12 -15 21 0 8
-7 15 -15 15 -8 0 -15 -4 -15 -8z"/>
<path d="M720 840 c0 -5 7 -10 16 -10 8 0 12 5 9 10 -3 6 -10 10 -16 10 -5 0
-9 -4 -9 -10z"/>
<path d="M1298 808 c-9 -24 -16 -61 -17 -82 -2 -47 -7 -57 -25 -50 -8 3 -17 1
-20 -5 -9 -14 23 -22 85 -20 81 1 90 6 87 40 -1 17 -6 33 -10 35 -4 3 -8 13
-8 23 0 10 -10 26 -21 37 -12 10 -25 29 -30 42 -13 33 -24 27 -41 -20z m62
-68 c0 -5 -7 -10 -15 -10 -8 0 -15 5 -15 10 0 6 7 10 15 10 8 0 15 -4 15 -10z"/>
<path d="M717 806 c-16 -12 -14 -14 19 -21 22 -4 41 -2 47 4 8 8 5 11 -11 11
-12 0 -22 5 -22 10 0 14 -11 12 -33 -4z"/>
<path d="M1817 813 c-4 -3 -7 -12 -7 -20 0 -8 -8 -25 -17 -40 -9 -14 -18 -33
-19 -42 -1 -9 -6 -33 -9 -53 l-8 -38 99 0 98 0 -22 20 c-25 24 -36 60 -30 95
3 16 1 25 -7 25 -7 0 -22 14 -35 30 -24 31 -32 35 -43 23z m58 -104 c-8 -12
-55 -12 -55 0 0 10 39 20 53 13 4 -2 5 -8 2 -13z"/>
<path d="M1260 739 c0 -5 5 -7 10 -4 6 3 10 8 10 11 0 2 -4 4 -10 4 -5 0 -10
-5 -10 -11z"/>
</g>
</svg>
